<?xml version="1.0" encoding="UTF-8"?>
<svg version="1.1" xmlns="http://www.w3.org/2000/svg" width="256" height="256">
<path d="M0 0 C84.48 0 168.96 0 256 0 C256 84.48 256 168.96 256 256 C171.52 256 87.04 256 0 256 C0 171.52 0 87.04 0 0 Z " fill="#0696D5" transform="translate(0,0)"/>
<path d="M0 0 C4.62 0 9.24 0 14 0 C14.63808594 1.50433594 15.27617188 3.00867188 15.93359375 4.55859375 C16.7681026 6.51828307 17.6027449 8.47791556 18.4375 10.4375 C18.85837891 11.43072266 19.27925781 12.42394531 19.71289062 13.44726562 C20.11572266 14.39150391 20.51855469 15.33574219 20.93359375 16.30859375 C21.30540771 17.18314209 21.67722168 18.05769043 22.06030273 18.95874023 C22.83373192 20.94927315 22.83373192 20.94927315 24 22 C24.3403125 21.43152344 24.680625 20.86304687 25.03125 20.27734375 C31.12792711 10.56481824 38.86388198 3.99482707 49.8828125 0.3828125 C63.47865677 -2.07547669 74.87826835 1.32172757 86 9 C86.99 9.99 86.99 9.99 88 11 C88.33 7.37 88.66 3.74 89 0 C105.17 0 121.34 0 138 0 C138 5.61 138 11.22 138 17 C127.77 17 117.54 17 107 17 C107 21.62 107 26.24 107 31 C116.57 31 126.14 31 136 31 C136 36.61 136 42.22 136 48 C126.43 48 116.86 48 107 48 C107 56.91 107 65.82 107 75 C100.73 75 94.46 75 88 75 C87.67 71.7 87.34 68.4 87 65 C85.659375 65.928125 84.31875 66.85625 82.9375 67.8125 C73.00202665 74.42575071 63.88112084 75.80187542 52 75 C49.06186716 74.26653288 46.74304367 73.31666096 44 72 C44.33 72.99 44.66 73.98 45 75 C38.07 75 31.14 75 24 75 C20 66 20 66 20 64 C11.42 64.33 2.84 64.66 -6 65 C-7.98 69.95 -7.98 69.95 -10 75 C-16.6 75 -23.2 75 -30 75 C-28.00057018 69.00171053 -25.94457612 63.13887291 -23.59375 57.28515625 C-23.27220947 56.47932602 -22.95066895 55.67349579 -22.61938477 54.84324646 C-21.58260448 52.24844591 -20.54160211 49.65536836 -19.5 47.0625 C-19.14639404 46.17981445 -18.79278809 45.29712891 -18.4284668 44.38769531 C-12.46779281 29.51231339 -6.3387144 14.7187097 0 0 Z " fill="#FBFDFD" transform="translate(74,90)"/>
<path d="M0 0 C4.62283511 2.65384979 8.30472435 6.6719487 10.6875 11.4375 C12.81326782 11.90401207 12.81326782 11.90401207 15.25 12.0625 C16.714375 12.18625 18.17875 12.31 19.6875 12.4375 C19.6875 16.7275 19.6875 21.0175 19.6875 25.4375 C18.285 25.47875 16.8825 25.52 15.4375 25.5625 C12.95384839 25.7694034 12.95384839 25.7694034 10.6875 26.4375 C8.39915977 29.16138597 8.39915977 29.16138597 6.6875 32.4375 C1.80670675 37.48281437 -3.13921891 39.7193535 -10.125 39.875 C-16.09757262 39.77215127 -19.85174278 38.38106797 -24.3125 34.4375 C-29.87496631 28.43589161 -30.83241228 23.78198478 -30.6875 15.703125 C-30.04004523 10.06487301 -27.74944644 6.56516221 -23.52734375 2.87890625 C-16.64625265 -2.27825969 -7.99921296 -3.61354408 0 0 Z " fill="#0B97D2" transform="translate(143.3125,108.5625)"/>
<path d="M0 0 C1.32 0 2.64 0 4 0 C2.96726702 8.52894996 0.20027751 15.25380655 -6.3125 21.0625 C-8.82940782 23.58834841 -8.82940782 23.58834841 -9 31 C-3.06 31 2.88 31 9 31 C9 31.33 9 31.66 9 32 C2.73 32 -3.54 32 -10 32 C-10.55272587 23.98547496 -10.53037162 19.6662255 -5.6015625 13.3125 C-2.80723993 9.27777083 -1.47629893 4.64599957 0 0 Z " fill="#D8E9F2" transform="translate(172,133)"/>
<path d="M0 0 C0.66 0 1.32 0 2 0 C2.83719383 2.29032311 3.6698929 4.58210957 4.5 6.875 C4.73847656 7.52597656 4.97695312 8.17695313 5.22265625 8.84765625 C7 13.7734375 7 13.7734375 7 16 C3.04 16 -0.92 16 -5 16 C-3.71291613 10.45563871 -2.08135307 5.29798964 0 0 Z " fill="#159AC8" transform="translate(80,121)"/>
</svg>
