<?xml version="1.0" encoding="UTF-8"?>
<svg version="1.1" xmlns="http://www.w3.org/2000/svg" width="400" height="400">
<path d="M0 0 C132 0 264 0 400 0 C400 132 400 264 400 400 C268 400 136 400 0 400 C0 268 0 136 0 0 Z " fill="#053957" transform="translate(0,0)"/>
<path d="M0 0 C1.65 0 3.3 0 5 0 C5.99 2.97 5.99 2.97 7 6 C9.26193799 5.515299 11.06965451 4.96312408 13.125 3.875 C13.74375 3.58625 14.3625 3.2975 15 3 C15.99 3.495 15.99 3.495 17 4 C16.67 6.64 16.34 9.28 16 12 C23.65273382 12.4684343 23.65273382 12.4684343 30.9375 10.5 C40.74509195 6.34221761 51.43631566 9.60291384 61 13 C62 14 62 14 62.09765625 16.94140625 C62.08605469 18.13636719 62.07445312 19.33132812 62.0625 20.5625 C62.05347656 21.76003906 62.04445313 22.95757812 62.03515625 24.19140625 C62.02355469 25.11824219 62.01195312 26.04507813 62 27 C61.28457031 26.6390625 60.56914062 26.278125 59.83203125 25.90625 C51.72385645 22.1301272 43.68241997 19.93827333 34.84765625 22.6640625 C32.91756615 23.58815296 32.91756615 23.58815296 31 26 C30.16654185 29.54295504 30.16654185 29.54295504 31 33 C34.12298577 36.07783417 37.50541888 36.83523066 41.6875 37.875 C51.35647902 40.51839031 58.95350561 44.07477607 64.75 52.5625 C67.41388856 57.75708269 68.1035608 63.44999115 66.3515625 69.0859375 C63.38185539 75.71066875 58.68308639 80.1792731 51.9375 82.875 C41.09021508 85.95054598 30.2797499 84.16048962 20 80 C18.515 79.01 18.515 79.01 17 78 C16.70703125 74.9609375 16.70703125 74.9609375 16.8125 71.375 C16.85310547 69.59222656 16.85310547 69.59222656 16.89453125 67.7734375 C16.92933594 66.85820312 16.96414063 65.94296875 17 65 C21.06887966 66.33890484 25.07742701 67.76896268 29.0703125 69.31640625 C35.52327182 71.60237362 42.1491632 72.15033766 48.5625 69.5625 C50.85721741 68.21401488 50.85721741 68.21401488 52 67 C52.69127892 61.42870189 52.69127892 61.42870189 50.1875 56.75 C44.91968044 53.85786377 39.3010051 51.94538279 33.53125 50.29296875 C27.93527507 48.65442129 24.00904922 46.28347818 20 42 C19.67 41.34 19.34 40.68 19 40 C18.34 40 17.68 40 17 40 C17 42.64 17 45.28 17 48 C15.1875 48.625 15.1875 48.625 13 49 C11.515 48.01 11.515 48.01 10 47 C10 46.34 10 45.68 10 45 C8.515 45.495 8.515 45.495 7 46 C5.77479736 49.00847418 5.77479736 49.00847418 5 52 C3.35 52 1.7 52 0 52 C-0.495 48.535 -0.495 48.535 -1 45 C-1.7425 45.474375 -2.485 45.94875 -3.25 46.4375 C-5.62504935 47.78695986 -7.32226974 48.6306579 -10 49 C-10.99 48.505 -10.99 48.505 -12 48 C-11.67 45.36 -11.34 42.72 -11 40 C-13.64 40.33 -16.28 40.66 -19 41 C-19.66 39.35 -20.32 37.7 -21 36 C-20.34 35.54625 -19.68 35.0925 -19 34.625 C-18.34 34.08875 -17.68 33.5525 -17 33 C-17 32.34 -17 31.68 -17 31 C-21.09176982 29.38232356 -23.80312838 28.42617314 -28 30 C-32.51584693 32.98045897 -34.95205014 35.63527454 -36.59375 40.82421875 C-37.58389584 46.12721138 -36.74911193 51.02117907 -34.3125 55.8125 C-31.20891961 60.0904081 -28.67738865 62.36857909 -23.44921875 63.6015625 C-16.97272037 64.51525937 -12.33931038 63.87855565 -7 60 C-6.59523438 59.46890625 -6.19046875 58.9378125 -5.7734375 58.390625 C-2.88891065 56.12874932 0.363171 56.48734476 3.875 56.5 C4.58269531 56.47164062 5.29039062 56.44328125 6.01953125 56.4140625 C10.06484889 56.39899614 11.81739791 56.85391832 15.0078125 59.40625 C17 62 17 62 17 64 C16.34 64 15.68 64 15 64 C14.67 65.65 14.34 67.3 14 69 C8.555 68.505 8.555 68.505 3 68 C3 71.63 3 75.26 3 79 C1.02 79.99 -0.96 80.98 -3 82 C-3.721875 81.195625 -4.44375 80.39125 -5.1875 79.5625 C-8.00637592 76.5520076 -8.00637592 76.5520076 -13 76 C-13.66 79.3 -14.32 82.6 -15 86 C-17.64 86 -20.28 86 -23 86 C-23.33 82.7 -23.66 79.4 -24 76 C-28.85077588 77.11940982 -31.777893 78.1334716 -35 82 C-37.9375 81.25 -37.9375 81.25 -41 80 C-43.00302201 76.52809519 -41.54804369 71.77541206 -41 68 C-41 67.34 -41 66.68 -41 66 C-42.3303125 66.495 -42.3303125 66.495 -43.6875 67 C-46.77992528 67.93356235 -48.82525958 68.51482277 -52 68 C-53.875 66.1875 -53.875 66.1875 -55 64 C-54.67 63.01 -54.34 62.02 -54 61 C-53.34 61 -52.68 61 -52 61 C-52 60.34 -52 59.68 -52 59 C-50.02 58.505 -50.02 58.505 -48 58 C-48.33 56.02 -48.66 54.04 -49 52 C-50.11375 51.855625 -51.2275 51.71125 -52.375 51.5625 C-56 51 -56 51 -58 50 C-58 47.36 -58 44.72 -58 42 C-55.03 41.34 -52.06 40.68 -49 40 C-49.74815513 34.45171755 -49.74815513 34.45171755 -53.125 30.5 C-53.74375 30.335 -54.3625 30.17 -55 30 C-53.125 25.25 -53.125 25.25 -52 23 C-48.37 23.33 -44.74 23.66 -41 24 C-41.33 20.37 -41.66 16.74 -42 13 C-39.75 11.375 -39.75 11.375 -37 10 C-34.47662846 10.7421681 -33.29697488 11.66428927 -31.5625 13.625 C-30.00897656 15.27248244 -30.00897656 15.27248244 -27.3125 15.1875 C-26.549375 15.125625 -25.78625 15.06375 -25 15 C-24.34 12.03 -23.68 9.06 -23 6 C-20.36 6 -17.72 6 -15 6 C-14.505 8.97 -14.505 8.97 -14 12 C-13.01 12 -12.02 12 -11 12 C-11.495 8.04 -11.495 8.04 -12 4 C-9.6875 3.3125 -9.6875 3.3125 -7 3 C-5.3125 4.4375 -5.3125 4.4375 -4 6 C-3.34 6 -2.68 6 -2 6 C-1.34 4.02 -0.68 2.04 0 0 Z " fill="#7CBE4C" transform="translate(323,153)"/>
<path d="M0 0 C4.29 0 8.58 0 13 0 C16.16242531 6.69080813 18.40040335 13.31445751 20.375 20.4375 C23.2969175 30.73157879 26.51324336 40.88457415 30 51 C33.5905245 42.82475096 36.48244557 34.62396156 39 26.0625 C41.66156272 17.1969253 44.48488671 8.56808864 48 0 C51.63 0 55.26 0 59 0 C62.44594826 8.79841772 65.58743759 17.59041739 68.16357422 26.68432617 C69.90827391 32.81766015 71.95010997 38.81938686 74.08203125 44.828125 C74.92993142 47.75789071 75.1987943 49.97832671 75 53 C75.66 53 76.32 53 77 53 C77.10521973 52.39124023 77.21043945 51.78248047 77.31884766 51.15527344 C78.46797454 44.93352105 80.18419227 39.17631065 82.375 33.25 C84.90786689 26.22175276 87.17790776 19.21731871 89.15625 12.01171875 C90.29320312 7.95342775 91.62632773 3.98364958 93 0 C97.62 0 102.24 0 107 0 C104.80980287 8.45210302 102.16068719 16.70079219 99.35769653 24.96353149 C95.69156413 35.7786908 92.11491117 46.59160816 88.9921875 57.578125 C87.4855705 62.77417419 85.74945403 67.8812271 84 73 C79.38 73 74.76 73 70 73 C67.76245418 68.03199971 66.04006241 63.11450614 64.5625 57.875 C64.12944201 56.37484523 63.69584232 54.87484675 63.26171875 53.375 C63.04950684 52.63765625 62.83729492 51.9003125 62.61865234 51.140625 C60.43313854 43.57843674 58.2255467 36.1841722 55 29 C54.32088773 27.00419165 53.65243018 25.00468933 53 23 C49.24799349 34.64186418 45.70951457 46.32378991 42.39453125 58.09765625 C40.98811376 63.08312901 39.49941571 68.04175514 38 73 C33.05 73 28.1 73 23 73 C19.59528286 63.65165294 16.36442495 54.31182825 13.73754883 44.71118164 C12.87280113 41.62612563 11.91979376 38.84122857 10.47265625 35.9765625 C8.77470719 32.54463362 7.97422358 29.29382308 7.125 25.5625 C5.46977693 18.51706447 3.33988865 11.74365729 0.953125 4.9140625 C0 2 0 2 0 0 Z " fill="#F4F8F9" transform="translate(11,163)"/>
<path d="M0 0 C4.62 0 9.24 0 14 0 C17.28054981 3.49925313 19.46564411 6.08659973 21.82128906 10.07324219 C23.12906989 12.21098168 24.54257994 14.24497866 25.9921875 16.2890625 C34 27.59242218 34 27.59242218 34 30 C34.66 30 35.32 30 36 30 C36.33451172 28.98486328 36.33451172 28.98486328 36.67578125 27.94921875 C38.70275269 23.43487233 41.71472794 19.74355737 44.70410156 15.82397461 C47.58029981 12.02421367 49.95829105 8.25100199 52.25 4.0625 C53.4875 2.721875 54.725 1.38125 56 0 C60.95 0 65.9 0 71 0 C71 24.09 71 48.18 71 73 C66.71 73 62.42 73 58 73 C58 55.51 58 38.02 58 20 C57.34 20 56.68 20 56 20 C55.75378906 20.70125 55.50757813 21.4025 55.25390625 22.125 C53.81972048 25.41335117 52.01205516 28.07293805 49.9375 31 C49.13241116 32.13903935 48.32773658 33.27837159 47.5234375 34.41796875 C47.10932617 35.00239746 46.69521484 35.58682617 46.26855469 36.18896484 C44.98267067 38.02473999 43.7260913 39.87760159 42.4765625 41.73828125 C42.07187744 42.33705078 41.66719238 42.93582031 41.25024414 43.55273438 C40.11306919 45.23757651 38.98025966 46.92536259 37.84765625 48.61328125 C37.23792969 49.40089844 36.62820312 50.18851563 36 51 C35.34 51 34.68 51 34 51 C32.70654297 49.43041992 32.70654297 49.43041992 31.2421875 47.23046875 C30.69820312 46.42287109 30.15421875 45.61527344 29.59375 44.78320312 C29.0265625 43.92662109 28.459375 43.07003906 27.875 42.1875 C23.06974192 34.99669319 18.09355313 28.00363555 13 21 C12.67 38.16 12.34 55.32 12 73 C8.04 73 4.08 73 0 73 C0 48.91 0 24.82 0 0 Z " fill="#F8FBFB" transform="translate(189,163)"/>
<path d="M0 0 C1 1 1 1 1.09765625 3.94140625 C1.08605469 5.13636719 1.07445312 6.33132812 1.0625 7.5625 C1.05347656 8.76003906 1.04445313 9.95757812 1.03515625 11.19140625 C1.02355469 12.11824219 1.01195312 13.04507813 1 14 C0.28457031 13.6390625 -0.43085938 13.278125 -1.16796875 12.90625 C-9.27614355 9.1301272 -17.31758003 6.93827333 -26.15234375 9.6640625 C-28.08243385 10.58815296 -28.08243385 10.58815296 -30 13 C-30.83345815 16.54295504 -30.83345815 16.54295504 -30 20 C-26.87701423 23.07783417 -23.49458112 23.83523066 -19.3125 24.875 C-9.64352098 27.51839031 -2.04649439 31.07477607 3.75 39.5625 C6.41388856 44.75708269 7.1035608 50.44999115 5.3515625 56.0859375 C2.38185539 62.71066875 -2.31691361 67.1792731 -9.0625 69.875 C-19.90978492 72.95054598 -30.7202501 71.16048962 -41 67 C-41.99 66.34 -42.98 65.68 -44 65 C-44.29296875 61.9609375 -44.29296875 61.9609375 -44.1875 58.375 C-44.14689453 56.59222656 -44.14689453 56.59222656 -44.10546875 54.7734375 C-44.07066406 53.85820312 -44.03585937 52.94296875 -44 52 C-39.93112034 53.33890484 -35.92257299 54.76896268 -31.9296875 56.31640625 C-25.47672818 58.60237362 -18.8508368 59.15033766 -12.4375 56.5625 C-10.14278259 55.21401488 -10.14278259 55.21401488 -9 54 C-8.30872108 48.42870189 -8.30872108 48.42870189 -10.8125 43.75 C-16.08031956 40.85786377 -21.6989949 38.94538279 -27.46875 37.29296875 C-33.06472493 35.65442129 -36.99095078 33.28347818 -41 29 C-41.33 28.34 -41.66 27.68 -42 27 C-42.66 27 -43.32 27 -44 27 C-44 29.64 -44 32.28 -44 35 C-45.8125 35.625 -45.8125 35.625 -48 36 C-48.99 35.34 -49.98 34.68 -51 34 C-51 33.34 -51 32.68 -51 32 C-52.485 32.495 -52.485 32.495 -54 33 C-55.22520264 36.00847418 -55.22520264 36.00847418 -56 39 C-57.65 39 -59.3 39 -61 39 C-61.33 36.69 -61.66 34.38 -62 32 C-62.7425 32.474375 -63.485 32.94875 -64.25 33.4375 C-66.62504935 34.78695986 -68.32226974 35.6306579 -71 36 C-71.66 35.67 -72.32 35.34 -73 35 C-72.67 32.36 -72.34 29.72 -72 27 C-75.96 27.495 -75.96 27.495 -80 28 C-80.66 26.35 -81.32 24.7 -82 23 C-80.02 22.67 -78.04 22.34 -76 22 C-76 22.66 -76 23.32 -76 24 C-76.66 24 -77.32 24 -78 24 C-78 24.66 -78 25.32 -78 26 C-77.01 25.67 -76.02 25.34 -75 25 C-74.67 24.01 -74.34 23.02 -74 22 C-72.68 22.33 -71.36 22.66 -70 23 C-70.66 21.68 -71.32 20.36 -72 19 C-68.66135596 19.57562828 -67.30897368 20.59063616 -65 23 C-61.27984022 24.24005326 -57.86512142 24.53598363 -54 24 C-50.78930119 22.1852572 -49.39380563 20.78761125 -47.75 17.5 C-47.03688376 14.17212421 -46.88087467 11.20297191 -46.75 7.8125 C-46.52734375 4.66015625 -46.52734375 4.66015625 -46 2 C-42.05316117 -1.30433018 -38.93675594 -1 -34 -1 C-32.80375 -1.495 -31.6075 -1.99 -30.375 -2.5 C-20.29694256 -6.48923107 -9.80458955 -3.48265735 0 0 Z " fill="#F3F8F9" transform="translate(384,166)"/>
<path d="M0 0 C4.29 0 8.58 0 13 0 C13 9.9 13 19.8 13 30 C23.23 30 33.46 30 44 30 C44 20.1 44 10.2 44 0 C47.96 0 51.92 0 56 0 C56 24.09 56 48.18 56 73 C52.04 73 48.08 73 44 73 C44 62.77 44 52.54 44 42 C33.44 42 22.88 42 12 42 C12 52.23 12 62.46 12 73 C8.04 73 4.08 73 0 73 C0 48.91 0 24.82 0 0 Z " fill="#F6F9FA" transform="translate(124,163)"/>
<path d="M0 0 C3.8125 0.9375 3.8125 0.9375 6.8125 2.9375 C6 4.875 6 4.875 4.8125 6.9375 C3.8225 7.2675 2.8325 7.5975 1.8125 7.9375 C2.4725 9.5875 3.1325 11.2375 3.8125 12.9375 C4.4725 12.6075 5.1325 12.2775 5.8125 11.9375 C7.81210012 11.897508 9.81297242 11.89403201 11.8125 11.9375 C11.4825 14.5775 11.1525 17.2175 10.8125 19.9375 C13.18679296 20.18819913 13.18679296 20.18819913 15.8125 19.9375 C17.43764468 18.47916642 17.43764468 18.47916642 18.8125 16.9375 C19.8025 16.9375 20.7925 16.9375 21.8125 16.9375 C22.3075 20.4025 22.3075 20.4025 22.8125 23.9375 C24.4625 23.9375 26.1125 23.9375 27.8125 23.9375 C28.1425 21.9575 28.4725 19.9775 28.8125 17.9375 C30.1325 17.6075 31.4525 17.2775 32.8125 16.9375 C32.8125 17.5975 32.8125 18.2575 32.8125 18.9375 C35.1225 19.2675 37.4325 19.5975 39.8125 19.9375 C39.3175 15.9775 39.3175 15.9775 38.8125 11.9375 C40.1325 11.9375 41.4525 11.9375 42.8125 11.9375 C43.39 12.68 43.9675 13.4225 44.5625 14.1875 C48.94255893 19.54090536 54.95835777 21.0388232 61.4375 22.9375 C67.37977417 24.6864428 71.40808198 26.53308198 75.8125 30.9375 C76.15187608 33.94340241 76.38631833 36.03971745 75.8125 38.9375 C72.81650201 42.09544383 70.07069088 43.72203959 65.68359375 44.140625 C55.99528497 44.32723769 48.26285976 41.47565617 39.8125 36.9375 C39.709375 38.030625 39.60625 39.12375 39.5 40.25 C38.8125 43.9375 38.8125 43.9375 37.5 45.9375 C35.8125 46.9375 35.8125 46.9375 33.625 46.625 C33.026875 46.398125 32.42875 46.17125 31.8125 45.9375 C31.4825 47.2575 31.1525 48.5775 30.8125 49.9375 C30.8125 47.2975 30.8125 44.6575 30.8125 41.9375 C29.1625 41.6075 27.5125 41.2775 25.8125 40.9375 C26.11285156 41.61296875 26.41320312 42.2884375 26.72265625 42.984375 C27.29306641 44.32242188 27.29306641 44.32242188 27.875 45.6875 C28.25785156 46.56921875 28.64070313 47.4509375 29.03515625 48.359375 C29.85850008 51.09006309 29.7898992 52.30651347 28.8125 54.9375 C28.8125 54.2775 28.8125 53.6175 28.8125 52.9375 C28.13703125 53.081875 27.4615625 53.22625 26.765625 53.375 C25.42757812 53.6534375 25.42757812 53.6534375 24.0625 53.9375 C23.18078125 54.123125 22.2990625 54.30875 21.390625 54.5 C18.8125 54.9375 18.8125 54.9375 14.8125 54.9375 C14.3175 52.4625 14.3175 52.4625 13.8125 49.9375 C13.1525 49.9375 12.4925 49.9375 11.8125 49.9375 C11.67972656 50.57558594 11.54695313 51.21367187 11.41015625 51.87109375 C11.23355469 52.69738281 11.05695313 53.52367187 10.875 54.375 C10.70097656 55.19871094 10.52695312 56.02242187 10.34765625 56.87109375 C9.8125 58.9375 9.8125 58.9375 8.8125 59.9375 C7.14820949 60.03573937 5.47968069 60.06723631 3.8125 60.0625 C2.45125 60.06636719 2.45125 60.06636719 1.0625 60.0703125 C-1.1875 59.9375 -1.1875 59.9375 -2.1875 58.9375 C-2.25929964 57.41821962 -2.27142007 55.89582518 -2.25 54.375 C-2.24097656 53.54871094 -2.23195313 52.72242188 -2.22265625 51.87109375 C-2.21105469 51.23300781 -2.19945312 50.59492188 -2.1875 49.9375 C-5.75532302 51.94475141 -5.75532302 51.94475141 -8.75 54.6875 C-9.224375 55.1 -9.69875 55.5125 -10.1875 55.9375 C-12.375 55.625 -12.375 55.625 -14.1875 54.9375 C-7.1875 47.9375 -7.1875 47.9375 -4.0625 47.8125 C-3.11375 47.85375 -2.165 47.895 -1.1875 47.9375 C-0.8575 51.2375 -0.5275 54.5375 -0.1875 57.9375 C2.4525 57.9375 5.0925 57.9375 7.8125 57.9375 C8.4725 54.6375 9.1325 51.3375 9.8125 47.9375 C16.00769509 47.9375 16.52817182 48.95207844 20.8125 52.9375 C22.1325 52.2775 23.4525 51.6175 24.8125 50.9375 C24.8125 47.3075 24.8125 43.6775 24.8125 39.9375 C29.94361614 38.91127677 32.00029389 39.3334313 36.8125 40.9375 C37.1425 39.2875 37.4725 37.6375 37.8125 35.9375 C38.4725 35.9375 39.1325 35.9375 39.8125 35.9375 C36.5284185 30.99382867 36.5284185 30.99382867 31.03515625 29.17578125 C29.64823247 29.16919567 28.2608353 29.19466953 26.875 29.25 C26.18470703 29.23517578 25.49441406 29.22035156 24.78320312 29.20507812 C18.97902605 29.29860515 16.87188566 31.20557521 12.8125 34.9375 C7.46716914 37.69638044 2.5627256 37.29049426 -3.1875 35.9375 C-8.9122755 33.27481372 -12.4011917 29.24235921 -14.62890625 23.37109375 C-15.9375693 17.66971555 -15.13153075 12.79059739 -12.5 7.625 C-5.45651684 -0.56066962 -5.45651684 -0.56066962 0 0 Z " fill="#0A445C" transform="translate(300.1875,181.0625)"/>
<path d="M0 0 C1 1 1 1 1.09765625 3.94140625 C1.08605469 5.13636719 1.07445312 6.33132812 1.0625 7.5625 C1.05347656 8.76003906 1.04445313 9.95757812 1.03515625 11.19140625 C1.02355469 12.11824219 1.01195312 13.04507813 1 14 C0.28457031 13.6390625 -0.43085938 13.278125 -1.16796875 12.90625 C-9.19036425 9.17007616 -17.38392063 6.81498486 -26.1171875 9.69921875 C-28.00917381 10.66683201 -28.00917381 10.66683201 -30 13 C-30.9688059 16.13265479 -30.9688059 16.13265479 -31 19 C-31.66 18.01 -32.32 17.02 -33 16 C-34.98 16.66 -36.96 17.32 -39 18 C-39 18.66 -39 19.32 -39 20 C-38.2265625 20.6496875 -38.2265625 20.6496875 -37.4375 21.3125 C-36.963125 21.869375 -36.48875 22.42625 -36 23 C-36.3125 25.6875 -36.3125 25.6875 -37 28 C-38.98 28.495 -38.98 28.495 -41 29 C-41.33 28.34 -41.66 27.68 -42 27 C-42.66 27 -43.32 27 -44 27 C-44 29.64 -44 32.28 -44 35 C-45.8125 35.625 -45.8125 35.625 -48 36 C-48.99 35.34 -49.98 34.68 -51 34 C-51 33.34 -51 32.68 -51 32 C-52.485 32.495 -52.485 32.495 -54 33 C-55.22520264 36.00847418 -55.22520264 36.00847418 -56 39 C-57.65 39 -59.3 39 -61 39 C-61.33 36.69 -61.66 34.38 -62 32 C-62.7425 32.474375 -63.485 32.94875 -64.25 33.4375 C-66.62504935 34.78695986 -68.32226974 35.6306579 -71 36 C-71.66 35.67 -72.32 35.34 -73 35 C-72.67 32.36 -72.34 29.72 -72 27 C-75.96 27.495 -75.96 27.495 -80 28 C-80.66 26.35 -81.32 24.7 -82 23 C-80.02 22.67 -78.04 22.34 -76 22 C-76 22.66 -76 23.32 -76 24 C-76.66 24 -77.32 24 -78 24 C-78 24.66 -78 25.32 -78 26 C-77.01 25.67 -76.02 25.34 -75 25 C-74.67 24.01 -74.34 23.02 -74 22 C-72.68 22.33 -71.36 22.66 -70 23 C-70.66 21.68 -71.32 20.36 -72 19 C-68.66135596 19.57562828 -67.30897368 20.59063616 -65 23 C-61.27984022 24.24005326 -57.86512142 24.53598363 -54 24 C-50.78930119 22.1852572 -49.39380563 20.78761125 -47.75 17.5 C-47.03688376 14.17212421 -46.88087467 11.20297191 -46.75 7.8125 C-46.52734375 4.66015625 -46.52734375 4.66015625 -46 2 C-42.05316117 -1.30433018 -38.93675594 -1 -34 -1 C-32.80375 -1.495 -31.6075 -1.99 -30.375 -2.5 C-20.29694256 -6.48923107 -9.80458955 -3.48265735 0 0 Z " fill="#D4DADC" transform="translate(384,166)"/>
<path d="M0 0 C1.65 0 3.3 0 5 0 C5.66 1.98 6.32 3.96 7 6 C9.26193799 5.515299 11.06965451 4.96312408 13.125 3.875 C13.74375 3.58625 14.3625 3.2975 15 3 C15.66 3.33 16.32 3.66 17 4 C16.67 6.64 16.34 9.28 16 12 C17.65 12 19.3 12 21 12 C19 14 19 14 16 15 C15.90203125 16.09699219 15.8040625 17.19398438 15.703125 18.32421875 C15.552981 19.77873878 15.40188917 21.23316118 15.25 22.6875 C15.1571875 23.7693457 15.1571875 23.7693457 15.0625 24.87304688 C14.53395821 29.69599072 13.55103542 32.45554057 10 36 C6.29889155 38.46740563 3.29465946 38.56420036 -1 38 C-3.75 36.625 -3.75 36.625 -6 35 C-7.32608822 34.31903578 -8.65686601 33.64669414 -10 33 C-9.34 34.32 -8.68 35.64 -8 37 C-9.65 36.67 -11.3 36.34 -13 36 C-13.33 36.66 -13.66 37.32 -14 38 C-13.34 38.33 -12.68 38.66 -12 39 C-13.65 39 -15.3 39 -17 39 C-17 37 -17 37 -16 36 C-16.99 35.67 -17.98 35.34 -19 35 C-18.34 33.68 -17.68 32.36 -17 31 C-18.98 30.34 -20.96 29.68 -23 29 C-23 27.02 -23 25.04 -23 23 C-21.35 22.67 -19.7 22.34 -18 22 C-18.47508074 19.55672764 -18.95858122 17.14910761 -19.625 14.75 C-19.810625 13.88375 -19.810625 13.88375 -20 13 C-19 12 -19 12 -17.15234375 11.90234375 C-15.1015625 11.93489583 -13.05078125 11.96744792 -11 12 C-11.33 9.36 -11.66 6.72 -12 4 C-9.6875 3.3125 -9.6875 3.3125 -7 3 C-5.3125 4.4375 -5.3125 4.4375 -4 6 C-3.34 6 -2.68 6 -2 6 C-1.34 4.02 -0.68 2.04 0 0 Z " fill="#D4DADB" transform="translate(323,153)"/>
<path d="M0 0 C8.89997163 1.66874468 16.46209042 3.46209042 23 10 C23.33937608 13.00590241 23.57381833 15.10221745 23 18 C20.00400201 21.15794383 17.25819088 22.78453959 12.87109375 23.203125 C4.92742659 23.35613304 -1.9592068 21.69722018 -9 18 C-9 17.34 -9 16.68 -9 16 C-8.34 16 -7.68 16 -7 16 C-7.33 15.01 -7.66 14.02 -8 13 C-8.66 12.67 -9.32 12.34 -10 12 C-9.67 10.68 -9.34 9.36 -9 8 C-8.34 8 -7.68 8 -7 8 C-7 6.68 -7 5.36 -7 4 C-5.5459375 3.566875 -5.5459375 3.566875 -4.0625 3.125 C-0.89335797 2.35785318 -0.89335797 2.35785318 0 0 Z " fill="#0B4460" transform="translate(353,202)"/>
<path d="M0 0 C1 1 1 1 1.09765625 3.94140625 C1.08605469 5.13636719 1.07445312 6.33132812 1.0625 7.5625 C1.05347656 8.76003906 1.04445313 9.95757812 1.03515625 11.19140625 C1.02355469 12.11824219 1.01195312 13.04507813 1 14 C0.28457031 13.6390625 -0.43085938 13.278125 -1.16796875 12.90625 C-8.8420145 9.3323089 -15.53455373 7.70650753 -24 9 C-26.54153668 10.06811298 -27.91095762 11.13680004 -30 13 C-30.66 13.33 -31.32 13.66 -32 14 C-32.33 13.01 -32.66 12.02 -33 11 C-35.97 10.505 -35.97 10.505 -39 10 C-39.75 8.25 -39.75 8.25 -40 6 C-38.25 4 -38.25 4 -36 2 C-35.3503125 0.948125 -35.3503125 0.948125 -34.6875 -0.125 C-26.7820726 -8.90880822 -9.16418923 -3.25518277 0 0 Z " fill="#F6FAFB" transform="translate(384,166)"/>
<path d="M0 0 C4.55065282 1.8616307 6.84689454 4.61097733 9 9 C9.35572255 13.31948807 8.48408379 16.25773818 6.125 19.875 C3.03670706 22.96329294 1.55122758 23.95554616 -2.875 24.3125 C-7.46427016 24.19461049 -10.02911945 22.53237168 -13.59765625 19.7578125 C-16.16036038 16.54550927 -15.64438949 12.91460597 -15.5390625 8.96484375 C-14.95275495 5.74015222 -14.34856598 4.4859635 -12 2.25 C-7.8735992 -0.5816799 -4.89941928 -0.71120602 0 0 Z " fill="#7FBE4E" transform="translate(329,167)"/>
<path d="M0 0 C5.445 0.495 5.445 0.495 11 1 C11 1.99 11 2.98 11 4 C11.66 4 12.32 4 13 4 C13 4.99 13 5.98 13 7 C14.32 6.67 15.64 6.34 17 6 C16.67 6.99 16.34 7.98 16 9 C13.36 9 10.72 9 8 9 C8 11.97 8 14.94 8 18 C6.02 18 4.04 18 2 18 C1.731875 17.071875 1.46375 16.14375 1.1875 15.1875 C0.07632183 12.20486385 -0.52454549 10.88134543 -3 9 C-3.99 8.67 -4.98 8.34 -6 8 C-6.33 8.66 -6.66 9.32 -7 10 C-7.99 10 -8.98 10 -10 10 C-10 10.99 -10 11.98 -10 13 C-11.65 12.67 -13.3 12.34 -15 12 C-14.92714594 8.86727542 -14.75474347 6.73388372 -12.4453125 4.48828125 C-7.62768625 1 -7.62768625 1 -5 1 C-5 1.66 -5 2.32 -5 3 C-4.01 3 -3.02 3 -2 3 C-2 3.99 -2 4.98 -2 6 C-0.35 6.33 1.3 6.66 3 7 C3.33 5.68 3.66 4.36 4 3 C1.525 2.505 1.525 2.505 -1 2 C-0.67 1.34 -0.34 0.68 0 0 Z " fill="#7EC049" transform="translate(299,219)"/>
<path d="M0 0 C1.84113283 2.76169925 2.5677017 4.55720895 3.4375 7.6875 C4.39441431 11.02205343 5.43379511 14.26520483 6.6875 17.5 C8 21 8 21 8 23 C5.03 23 2.06 23 -1 23 C-1.061875 23.721875 -1.12375 24.44375 -1.1875 25.1875 C-2.26192665 28.90666917 -4.05732994 30.54777495 -7 33 C-7.99 33 -8.98 33 -10 33 C-9.37565124 28.78604003 -8.43992886 24.8318007 -7.1875 20.76171875 C-6.83429687 19.61251953 -6.48109375 18.46332031 -6.1171875 17.27929688 C-5.74851562 16.09400391 -5.37984375 14.90871094 -5 13.6875 C-4.44699219 11.88055664 -4.44699219 11.88055664 -3.8828125 10.03710938 C-1.12970663 1.12970663 -1.12970663 1.12970663 0 0 Z " fill="#164A65" transform="translate(64,185)"/>
<path d="M0 0 C0.66 0 1.32 0 2 0 C4.1519437 3.22791555 4.20086443 4.28400809 4 8 C1.03 8.66 -1.94 9.32 -5 10 C-5 12.64 -5 15.28 -5 18 C-0.545 18.99 -0.545 18.99 4 20 C4.33 21.98 4.66 23.96 5 26 C3.68 26.33 2.36 26.66 1 27 C1 27.66 1 28.32 1 29 C0.34 29.33 -0.32 29.66 -1 30 C0.1678266 33.81413002 0.1678266 33.81413002 3.125 36.3125 C3.74375 36.539375 4.3625 36.76625 5 37 C2.1875 37.25 2.1875 37.25 -1 37 C-2.875 35.25 -2.875 35.25 -4 33 C-4 31.68 -4 30.36 -4 29 C-4.66 28.67 -5.32 28.34 -6 28 C-6 27.01 -6 26.02 -6 25 C-6.66 25 -7.32 25 -8 25 C-8 24.01 -8 23.02 -8 22 C-7.34 21.67 -6.68 21.34 -6 21 C-6.33 20.34 -6.66 19.68 -7 19 C-7.06996014 17.29297265 -7.08440154 15.58331997 -7.0625 13.875 C-7.05347656 12.96492187 -7.04445313 12.05484375 -7.03515625 11.1171875 C-7.02355469 10.41851562 -7.01195312 9.71984375 -7 9 C-3.535 8.505 -3.535 8.505 0 8 C0 5.36 0 2.72 0 0 Z " fill="#0C3F44" transform="translate(270,185)"/>
<path d="M0 0 C-2.13337405 8.06480039 -4.50679552 16.03946386 -7 24 C-7.66 24 -8.32 24 -9 24 C-9.86975343 21.12891082 -10.72100833 18.25437467 -11.5625 15.375 C-11.80935547 14.56675781 -12.05621094 13.75851563 -12.31054688 12.92578125 C-13.66194585 8.24346932 -14.30834073 4.84164413 -13 0 C-12.34 0.33 -11.68 0.66 -11 1 C-11 2.32 -11 3.64 -11 5 C-7.75150023 3.27773504 -7.75150023 3.27773504 -7 0 C-4.3333581 -1.33332095 -2.83319697 -0.67102033 0 0 Z " fill="#0D4460" transform="translate(95,192)"/>
<path d="M0 0 C0.66 0 1.32 0 2 0 C2 17.82 2 35.64 2 54 C5.3 54 8.6 54 12 54 C12 54.33 12 54.66 12 55 C10.23050905 55.10815225 8.45912513 55.18566083 6.6875 55.25 C5.70136719 55.29640625 4.71523437 55.3428125 3.69921875 55.390625 C1 55 1 55 -0.68798828 53.23876953 C-2.22593675 50.61446967 -2.20267114 49.73345548 -1.69140625 46.7890625 C-1.07006195 42.18519711 -0.89182156 37.663254 -0.90234375 33.0234375 C-0.9033609 32.32188538 -0.90437805 31.62033325 -0.90542603 30.89752197 C-0.91218015 28.72331191 -0.92470501 26.54918204 -0.9375 24.375 C-0.94252697 22.87890775 -0.94708775 21.38281387 -0.95117188 19.88671875 C-0.96207815 16.25777781 -0.97927618 12.62889973 -1 9 C-1.99 8.67 -2.98 8.34 -4 8 C-2.66666667 5.33333333 -1.33333333 2.66666667 0 0 Z " fill="#305164" transform="translate(245,183)"/>
<path d="M0 0 C2.64 0 5.28 0 8 0 C8 0.33 8 0.66 8 1 C5.69 1 3.38 1 1 1 C1.3403125 2.6396875 1.3403125 2.6396875 1.6875 4.3125 C2 8 2 8 0.8125 9.6875 C-1.42823282 11.31009963 -2.9453926 11.48879657 -5.6875 11.6875 C-6.89986328 11.78611328 -6.89986328 11.78611328 -8.13671875 11.88671875 C-8.75160156 11.92410156 -9.36648438 11.96148437 -10 12 C-10 12.99 -10 13.98 -10 15 C-10.99 15 -11.98 15 -13 15 C-13.99 17.475 -13.99 17.475 -15 20 C-17.64 20 -20.28 20 -23 20 C-23.33 19.34 -23.66 18.68 -24 18 C-22.02 18 -20.04 18 -18 18 C-18.33 14.37 -18.66 10.74 -19 7 C-16.75 5.375 -16.75 5.375 -14 4 C-11.47662846 4.7421681 -10.29697488 5.66428927 -8.5625 7.625 C-7.00897656 9.27248244 -7.00897656 9.27248244 -4.3125 9.1875 C-3.549375 9.125625 -2.78625 9.06375 -2 9 C-1.34 6.03 -0.68 3.06 0 0 Z " fill="#78BA52" transform="translate(300,159)"/>
<path d="M0 0 C3.96 0 7.92 0 12 0 C12 24.09 12 48.18 12 73 C8.04 73 4.08 73 0 73 C0 72.67 0 72.34 0 72 C0.63808594 71.93941406 1.27617187 71.87882812 1.93359375 71.81640625 C2.75988281 71.73261719 3.58617187 71.64882812 4.4375 71.5625 C5.26121094 71.48128906 6.08492187 71.40007812 6.93359375 71.31640625 C8.98662025 71.21069185 8.98662025 71.21069185 10 70 C10.12396871 67.85331715 10.1780072 65.70257613 10.20532227 63.55249023 C10.22017166 62.54277664 10.22017166 62.54277664 10.23532104 61.51266479 C10.26701838 59.27801075 10.29172574 57.04333542 10.31640625 54.80859375 C10.33696869 53.26302016 10.35796496 51.71745228 10.37937927 50.17189026 C10.43467337 46.09649268 10.48405013 42.02104375 10.53222656 37.94555664 C10.58238817 33.7898296 10.63810204 29.63417748 10.69335938 25.47851562 C10.80103064 17.3190737 10.90245552 9.15956924 11 1 C7.7 1 4.4 1 1 1 C1 10.57 1 20.14 1 30 C0.67 30 0.34 30 0 30 C0 20.1 0 10.2 0 0 Z " fill="#E2EFF7" transform="translate(168,163)"/>
<path d="M0 0 C3.75 1 3.75 1 6.75 3 C5.9375 4.9375 5.9375 4.9375 4.75 7 C3.76 7.33 2.77 7.66 1.75 8 C2.41 9.65 3.07 11.3 3.75 13 C-0.23175544 10.89851796 -2.60039045 8.63094642 -5.25 5 C-4.92 6.65 -4.59 8.3 -4.25 10 C-5.57 10 -6.89 10 -8.25 10 C-8.58 9.01 -8.91 8.02 -9.25 7 C-9.91 6.67 -10.57 6.34 -11.25 6 C-5.12968614 -0.59846338 -5.12968614 -0.59846338 0 0 Z " fill="#09435E" transform="translate(300.25,181)"/>
<path d="M0 0 C1.27875 -0.061875 2.5575 -0.12375 3.875 -0.1875 C4.95394531 -0.23970703 4.95394531 -0.23970703 6.0546875 -0.29296875 C6.69664062 -0.19628906 7.33859375 -0.09960938 8 0 C10 3 10 3 9.64477539 5.3425293 C9.43199951 6.21949463 9.21922363 7.09645996 9 8 C8.85917098 9.83747541 8.75560602 11.67807451 8.68359375 13.51953125 C8.64548584 14.44096924 8.60737793 15.36240723 8.56811523 16.31176758 C8.52501221 17.46700928 8.48190918 18.62225098 8.4375 19.8125 C8.293125 23.504375 8.14875 27.19625 8 31 C17.24 31 26.48 31 36 31 C36 20.77 36 10.54 36 0 C36.33 0 36.66 0 37 0 C37 10.56 37 21.12 37 32 C27.1 32 17.2 32 7 32 C7 21.77 7 11.54 7 1 C4.69 1 2.38 1 0 1 C0 0.67 0 0.34 0 0 Z " fill="#042F46" transform="translate(130,161)"/>
<path d="M0 0 C-0.14049518 1.47968324 -0.28754826 2.95874516 -0.4375 4.4375 C-0.51871094 5.26121094 -0.59992188 6.08492187 -0.68359375 6.93359375 C-1 9 -1 9 -2 10 C-4.25 10.375 -4.25 10.375 -7 10 C-9.8125 7.5 -9.8125 7.5 -12 5 C-14.31 5.66 -16.62 6.32 -19 7 C-19.33 5.68 -19.66 4.36 -20 3 C-16.323477 2.19576059 -12.66167401 1.69751974 -8.9296875 1.25390625 C-5.92244363 0.85821627 -3.03590074 0 0 0 Z " fill="#0C4951" transform="translate(300,159)"/>
<path d="M0 0 C0.495 0.99 0.495 0.99 1 2 C1.66 2 2.32 2 3 2 C3.66 3.98 4.32 5.96 5 8 C5.66 8 6.32 8 7 8 C6.67 8.66 6.34 9.32 6 10 C5.50242187 9.35160156 5.00484375 8.70320312 4.4921875 8.03515625 C1.1461067 5.30269842 -1.73974441 5.37300519 -5.875 5.4375 C-6.56980469 5.41365234 -7.26460938 5.38980469 -7.98046875 5.36523438 C-13.85536008 5.38183011 -15.90165142 7.21559177 -20 11 C-25.30888336 13.75245184 -30.27869505 13.30586133 -36 12 C-38.72802224 10.5726011 -40.65201239 9.03492259 -43 7 C-42.34 6.34 -41.68 5.68 -41 5 C-41 5.66 -41 6.32 -41 7 C-32.74369101 10.08235535 -27.31729539 10.62808849 -18.85546875 7.94921875 C-16.64063431 7.0894982 -16.64063431 7.0894982 -16 4 C-11.05 3.67 -6.1 3.34 -1 3 C-0.67 2.01 -0.34 1.02 0 0 Z " fill="#185447" transform="translate(333,205)"/>
<path d="M0 0 C8.18210863 -0.31469649 8.18210863 -0.31469649 11 2 C12.22768571 4.29132722 13.09240516 6.54949394 14 9 C12.35 9.33 10.7 9.66 9 10 C9.54226981 13.79588866 11.20127563 15.47211993 14 18 C10.04 18.495 10.04 18.495 6 19 C4.4375 17.1875 4.4375 17.1875 3 15 C3.33 14.01 3.66 13.02 4 12 C4.66 12 5.32 12 6 12 C6 11.34 6 10.68 6 10 C7.32 9.67 8.64 9.34 10 9 C9.67 7.02 9.34 5.04 9 3 C7.88625 2.87625 6.7725 2.7525 5.625 2.625 C2 2 2 2 0 0 Z " fill="#79BA59" transform="translate(265,202)"/>
<path d="M0 0 C0.66 0.33 1.32 0.66 2 1 C1.67 1.66 1.34 2.32 1 3 C1.99 4.32 2.98 5.64 4 7 C3.67 7.66 3.34 8.32 3 9 C4.11375 8.87625 4.11375 8.87625 5.25 8.75 C8.78157027 9.07105184 9.76630364 10.35265617 12 13 C11.01 13.99 10.02 14.98 9 16 C-0.79591837 12.57142857 -0.79591837 12.57142857 -3 10 C-3.75336323 3.97309417 -3.75336323 3.97309417 -1.5 1.0625 C-1.005 0.711875 -0.51 0.36125 0 0 Z " fill="#11445D" transform="translate(356,176)"/>
<path d="M0 0 C0.33 2.31 0.66 4.62 1 7 C2.65 7 4.3 7 6 7 C6.33 5.02 6.66 3.04 7 1 C8.32 0.67 9.64 0.34 11 0 C11 0.66 11 1.32 11 2 C12.65 2.66 14.3 3.32 16 4 C15.01 4.66 14.02 5.32 13 6 C12.67 5.67 12.34 5.34 12 5 C11.34 6.98 10.68 8.96 10 11 C8.35 10.67 6.7 10.34 5 10 C5 9.34 5 8.68 5 8 C3.35 8.33 1.7 8.66 0 9 C-0.2475 8.38125 -0.495 7.7625 -0.75 7.125 C-2.20628639 4.64931313 -3.37812506 4.04874998 -6 3 C-3.375 0 -3.375 0 0 0 Z " fill="#064262" transform="translate(322,198)"/>
<path d="M0 0 C4.93210831 1.23302708 7.21774571 2.71960878 10 7 C10 7.66 10 8.32 10 9 C5.58774263 10.47075246 2.51718381 11.36884358 -2 10 C-1.85950482 8.52031676 -1.71245174 7.04125484 -1.5625 5.5625 C-1.48128906 4.73878906 -1.40007812 3.91507813 -1.31640625 3.06640625 C-1 1 -1 1 0 0 Z " fill="#104050" transform="translate(327,167)"/>
<path d="M0 0 C0.66 0 1.32 0 2 0 C1.70703125 1.98567708 1.4140625 3.97135417 1.12109375 5.95703125 C0.86095201 8.2025342 0.86095201 8.2025342 2 11 C1.34 11.66 0.68 12.32 0 13 C-0.68124706 14.99508067 -1.34427209 16.99638693 -2 19 C-3.28236442 22.02342074 -4.63306568 25.01397844 -6 28 C-6.66 27.67 -7.32 27.34 -8 27 C-6.5033316 17.57098907 -3.29106874 8.92107313 0 0 Z " fill="#24536B" transform="translate(109,190)"/>
<path d="M0 0 C1.41778293 2.83556587 0.86257622 4.9908706 0.5625 8.125 C0.46066406 9.22070312 0.35882813 10.31640625 0.25390625 11.4453125 C0.17011719 12.28835937 0.08632812 13.13140625 0 14 C-0.33 14 -0.66 14 -1 14 C-1.33 11.69 -1.66 9.38 -2 7 C-2.13277344 7.84304687 -2.26554687 8.68609375 -2.40234375 9.5546875 C-2.57894531 10.65039062 -2.75554687 11.74609375 -2.9375 12.875 C-3.19853516 14.51082031 -3.19853516 14.51082031 -3.46484375 16.1796875 C-4 19 -4 19 -5 21 C-7.5625 21.625 -7.5625 21.625 -10 22 C-9.35083537 15.99522721 -7.14204997 10.599219 -5 5 C-4.34 5 -3.68 5 -3 5 C-2.690625 4.360625 -2.38125 3.72125 -2.0625 3.0625 C-1 1 -1 1 0 0 Z " fill="#0F455E" transform="translate(122,160)"/>
<path d="M0 0 C0.99 0 1.98 0 3 0 C3 0.66 3 1.32 3 2 C2.01 2.66 1.02 3.32 0 4 C-0.33 4.99 -0.66 5.98 -1 7 C-0.01 6.67 0.98 6.34 2 6 C3.56118428 5.93259135 5.1250252 5.91485544 6.6875 5.9375 C7.89986328 5.95103516 7.89986328 5.95103516 9.13671875 5.96484375 C10.05904297 5.98224609 10.05904297 5.98224609 11 6 C11 6.99 11 7.98 11 9 C8.69 9 6.38 9 4 9 C4.99 10.485 4.99 10.485 6 12 C6.1875 15.125 6.1875 15.125 6 18 C5 19 5 19 3.15234375 19.09765625 C1.1015625 19.06510417 -0.94921875 19.03255208 -3 19 C0 17 0 17 3 17 C2.25184487 11.45171755 2.25184487 11.45171755 -1.125 7.5 C-1.74375 7.335 -2.3625 7.17 -3 7 C-1.125 2.25 -1.125 2.25 0 0 Z " fill="#75B55B" transform="translate(271,176)"/>
<path d="M0 0 C0.66 0 1.32 0 2 0 C2 0.66 2 1.32 2 2 C4.31 2 6.62 2 9 2 C5.97326379 5.23547663 4.10378995 6.91717362 -0.48046875 7.09765625 C-1.37378906 7.08605469 -2.26710938 7.07445312 -3.1875 7.0625 C-4.08855469 7.05347656 -4.98960937 7.04445312 -5.91796875 7.03515625 C-6.60503906 7.02355469 -7.29210937 7.01195312 -8 7 C-7.67 5.68 -7.34 4.36 -7 3 C-7.66 2.67 -8.32 2.34 -9 2 C-6.94921875 1.77213542 -4.8984375 1.54427083 -2.84765625 1.31640625 C-0.98859771 1.18113386 -0.98859771 1.18113386 0 0 Z " fill="#1E465E" transform="translate(366,218)"/>
<path d="M0 0 C2.56428515 -0.13559675 5.12135216 -0.23433188 7.6875 -0.3125 C8.40873047 -0.35439453 9.12996094 -0.39628906 9.87304688 -0.43945312 C14.11259749 -0.53624652 15.55798642 -0.35052306 19.01953125 2.39453125 C21 5 21 5 21 7 C20.34 7 19.68 7 19 7 C18.67 8.65 18.34 10.3 18 12 C13.72213252 11.50639991 10.90432869 10.95216435 7 9 C10.63 9 14.26 9 18 9 C17.67 7.68 17.34 6.36 17 5 C15.68 4.67 14.36 4.34 13 4 C13 4.66 13 5.32 13 6 C11.68 6 10.36 6 9 6 C9 5.34 9 4.68 9 4 C9.99 3.01 10.98 2.02 12 1 C8.04 1 4.08 1 0 1 C0 0.67 0 0.34 0 0 Z " fill="#71B457" transform="translate(319,210)"/>
<path d="M0 0 C0.66 0 1.32 0 2 0 C2 0.99 2 1.98 2 3 C2.66 3 3.32 3 4 3 C4.12375 4.134375 4.2475 5.26875 4.375 6.4375 C4.684375 8.2009375 4.684375 8.2009375 5 10 C5.66 10.33 6.32 10.66 7 11 C7 7.37 7 3.74 7 0 C8.32 0 9.64 0 11 0 C10.38388165 4.31931387 9.35761422 8.25208775 7.9375 12.375 C7.57527344 13.43460938 7.21304688 14.49421875 6.83984375 15.5859375 C6.56269531 16.38257813 6.28554688 17.17921875 6 18 C3.42274665 14.94627964 2.30432132 12.2945829 1.3125 8.4375 C1.06113281 7.48746094 0.80976562 6.53742188 0.55078125 5.55859375 C0 3 0 3 0 0 Z " fill="#224D62" transform="translate(36,198)"/>
<path d="M0 0 C0.33 0 0.66 0 1 0 C1 2.97 1 5.94 1 9 C6.94 8.505 6.94 8.505 13 8 C12.38461538 15.50769231 12.38461538 15.50769231 10.4375 18 C9.963125 18.33 9.48875 18.66 9 19 C8.34 17.68 7.68 16.36 7 15 C7.66 14.01 8.32 13.02 9 12 C6.02148438 12.09765625 6.02148438 12.09765625 3.04296875 12.1953125 C1 12 1 12 -2 10 C-1.85950482 8.52031676 -1.71245174 7.04125484 -1.5625 5.5625 C-1.48128906 4.73878906 -1.40007812 3.91507813 -1.31640625 3.06640625 C-1 1 -1 1 0 0 Z " fill="#80B85D" transform="translate(325,168)"/>
<path d="M0 0 C0.33 0 0.66 0 1 0 C1.335939 1.4577353 1.66866624 2.91621106 2 4.375 C2.185625 5.18710938 2.37125 5.99921875 2.5625 6.8359375 C3.06108615 9.30215827 3 11.47269713 3 14 C1.68 13.67 0.36 13.34 -1 13 C-1.33 13.66 -1.66 14.32 -2 15 C-1.34 15.33 -0.68 15.66 0 16 C-1.65 16 -3.3 16 -5 16 C-5 14 -5 14 -4 13 C-4.99 12.67 -5.98 12.34 -7 12 C-6.34 11.34 -5.68 10.68 -5 10 C-4.690625 9.05125 -4.38125 8.1025 -4.0625 7.125 C-3.05755855 4.16928985 -2.05113783 2.31867754 0 0 Z " fill="#D7DDE0" transform="translate(311,176)"/>
<path d="M0 0 C0.63019694 9.17286652 0.63019694 9.17286652 -2 12.625 C-2.66 13.07875 -3.32 13.5325 -4 14 C-4.33 12.35 -4.66 10.7 -5 9 C-5.33 9.99 -5.66 10.98 -6 12 C-6.66 12 -7.32 12 -8 12 C-8.33 9.69 -8.66 7.38 -9 5 C-8.34 5 -7.68 5 -7 5 C-6.731875 4.360625 -6.46375 3.72125 -6.1875 3.0625 C-4.60976325 0.32222039 -3.09853405 0 0 0 Z " fill="#7DBF47" transform="translate(324,169)"/>
<path d="M0 0 C1.21244635 6.30472103 1.21244635 6.30472103 0.3125 9.25 C-1.25629345 11.3417246 -2.76381372 12.64473559 -5 14 C-5.99 14 -6.98 14 -8 14 C-7.34679993 9.5364662 -6.50375423 5.26063699 -5 1 C-2 0 -2 0 0 0 Z " fill="#064363" transform="translate(62,204)"/>
<path d="M0 0 C0.33 0 0.66 0 1 0 C1.02505615 0.95890137 1.0501123 1.91780273 1.07592773 2.90576172 C1.1699862 6.45798477 1.27021058 10.01001156 1.37231445 13.56201172 C1.41566926 15.10037653 1.45734395 16.63878963 1.49731445 18.17724609 C1.55500398 20.3865414 1.61870179 22.59559348 1.68359375 24.8046875 C1.70030624 25.49432587 1.71701874 26.18396423 1.73423767 26.89450073 C1.80806995 30.57114264 1.80806995 30.57114264 3 34 C1.72340426 45.27659574 1.72340426 45.27659574 0 47 C-2.18639453 47.07258946 -4.37500389 47.08373783 -6.5625 47.0625 C-8.35880859 47.04896484 -8.35880859 47.04896484 -10.19140625 47.03515625 C-11.11824219 47.02355469 -12.04507813 47.01195312 -13 47 C-13 46.67 -13 46.34 -13 46 C-7.06 45.505 -7.06 45.505 -1 45 C-0.67 30.15 -0.34 15.3 0 0 Z " fill="#092F47" transform="translate(202,191)"/>
<path d="M0 0 C0.66 0 1.32 0 2 0 C3 7.625 3 7.625 3 11 C4.32 11.33 5.64 11.66 7 12 C7 11.01 7 10.02 7 9 C7.99 9 8.98 9 10 9 C10.33 8.01 10.66 7.02 11 6 C13.475 6.99 13.475 6.99 16 8 C16 8.33 16 8.66 16 9 C15.0925 9.2475 14.185 9.495 13.25 9.75 C9.89648511 11.03981342 8.32291764 12.31971042 6 15 C3.0625 14.25 3.0625 14.25 0 13 C-1.21436819 9.99047883 -0.98227188 7.42160975 -0.5625 4.25 C-0.46066406 3.45078125 -0.35882813 2.6515625 -0.25390625 1.828125 C-0.17011719 1.22484375 -0.08632813 0.6215625 0 0 Z " fill="#71B254" transform="translate(282,220)"/>
<path d="M0 0 C0.66 0.33 1.32 0.66 2 1 C1.67 2.65 1.34 4.3 1 6 C-0.65 6 -2.3 6 -4 6 C-4 7.65 -4 9.3 -4 11 C-5.72526042 11.71614583 -7.45052083 12.43229167 -9.17578125 13.1484375 C-11.26533932 14.06806692 -11.26533932 14.06806692 -14 16 C-14 15.01 -14 14.02 -14 13 C-14.66 13 -15.32 13 -16 13 C-16 12.34 -16 11.68 -16 11 C-12.535 10.505 -12.535 10.505 -9 10 C-9 9.01 -9 8.02 -9 7 C-8.67 6.01 -8.34 5.02 -8 4 C-5.36 4 -2.72 4 0 4 C0 2.68 0 1.36 0 0 Z " fill="#81BB5C" transform="translate(304,170)"/>
<path d="M0 0 C2.64 0 5.28 0 8 0 C8 0.33 8 0.66 8 1 C5.69 1 3.38 1 1 1 C1.3403125 2.6396875 1.3403125 2.6396875 1.6875 4.3125 C2 8 2 8 0.875 9.65625 C-1.59653226 11.42751478 -3.69416098 11.72969521 -6.6875 12.1875 C-7.68136719 12.34605469 -8.67523438 12.50460938 -9.69921875 12.66796875 C-10.45847656 12.77753906 -11.21773438 12.88710937 -12 13 C-12 11.02 -12 9.04 -12 7 C-13.32 6.34 -14.64 5.68 -16 5 C-14.3125 4.1875 -14.3125 4.1875 -12 4 C-10.33333333 5.66666667 -8.66666667 7.33333333 -7 9 C-4.28836222 9.41986946 -4.28836222 9.41986946 -2 9 C-1.34 6.03 -0.68 3.06 0 0 Z " fill="#73B55B" transform="translate(300,159)"/>
<path d="M0 0 C0.66 0 1.32 0 2 0 C4.1519437 3.22791555 4.20086443 4.28400809 4 8 C1.03 8.66 -1.94 9.32 -5 10 C-5 12.64 -5 15.28 -5 18 C-3.35 18.33 -1.7 18.66 0 19 C0 19.33 0 19.66 0 20 C-2.31 19.67 -4.62 19.34 -7 19 C-7 15.7 -7 12.4 -7 9 C-3.535 8.505 -3.535 8.505 0 8 C0 5.36 0 2.72 0 0 Z " fill="#10443C" transform="translate(270,185)"/>
<path d="M0 0 C4.62 0 9.24 0 14 0 C13.34 2.64 12.68 5.28 12 8 C11.67 8 11.34 8 11 8 C11 5.69 11 3.38 11 1 C8.69 1 6.38 1 4 1 C3.67 1.99 3.34 2.98 3 4 C2.34 4 1.68 4 1 4 C0.89042969 4.62648437 0.78085938 5.25296875 0.66796875 5.8984375 C0.50941406 6.71570313 0.35085937 7.53296875 0.1875 8.375 C0.03667969 9.18710938 -0.11414063 9.99921875 -0.26953125 10.8359375 C-1 13 -1 13 -4 15 C-3.52229477 13.06213915 -3.04278429 11.12472326 -2.5625 9.1875 C-2.29566406 8.10855469 -2.02882813 7.02960938 -1.75390625 5.91796875 C-1.23922588 3.9259157 -0.65062825 1.95188476 0 0 Z " fill="#E0F2F5" transform="translate(104,163)"/>
<path d="M0 0 C0.66 0 1.32 0 2 0 C2.99 2.31 3.98 4.62 5 7 C5.66 7 6.32 7 7 7 C7.33 8.65 7.66 10.3 8 12 C5.525 13.485 5.525 13.485 3 15 C2.49363393 13.25183142 1.99515381 11.50137737 1.5 9.75 C1.2215625 8.77546875 0.943125 7.8009375 0.65625 6.796875 C0 4 0 4 0 0 Z " fill="#0F445D" transform="translate(71,161)"/>
<path d="M0 0 C0 0.33 0 0.66 0 1 C-0.65226562 1.15855469 -1.30453125 1.31710938 -1.9765625 1.48046875 C-7.7984723 3.03469541 -12.13959627 4.24873387 -16 9 C-16.7723136 12.67496875 -16.98686704 16.25053975 -17 20 C-17.33 20 -17.66 20 -18 20 C-18.02693575 17.87506859 -18.04636628 15.75004088 -18.0625 13.625 C-18.07410156 12.44164062 -18.08570313 11.25828125 -18.09765625 10.0390625 C-18 7 -18 7 -17 5 C-16.34 5 -15.68 5 -15 5 C-14.67 3.68 -14.34 2.36 -14 1 C-9.27616037 0.34843591 -4.78025483 -0.11950637 0 0 Z " fill="#D3E1D0" transform="translate(331,164)"/>
<path d="M0 0 C0.66 0.33 1.32 0.66 2 1 C3.20116938 6.64549608 3.10414253 12.24901786 3 18 C2.67 16.68 2.34 15.36 2 14 C0.02 14.99 0.02 14.99 -2 16 C-1.34 10.72 -0.68 5.44 0 0 Z " fill="#064261" transform="translate(119,166)"/>
<path d="M0 0 C1.32 0 2.64 0 4 0 C4.33 2.97 4.66 5.94 5 9 C2.08517222 9.80967438 0.53886783 10.21845993 -2.3125 9.0625 C-2.869375 8.711875 -3.42625 8.36125 -4 8 C-3.01 8 -2.02 8 -1 8 C-0.67 5.36 -0.34 2.72 0 0 Z " fill="#0D4855" transform="translate(278,168)"/>
<path d="M0 0 C2.31 0 4.62 0 7 0 C7.33 1.65 7.66 3.3 8 5 C6.35 5.33 4.7 5.66 3 6 C3 7.32 3 8.64 3 10 C2.01 10 1.02 10 0 10 C0 6.7 0 3.4 0 0 Z " fill="#83BB64" transform="translate(301,160)"/>
<path d="M0 0 C0 2.64 0 5.28 0 8 C-0.99 8.33 -1.98 8.66 -3 9 C-3 8.01 -3 7.02 -3 6 C-4.1446875 6.495 -4.1446875 6.495 -5.3125 7 C-8 8 -8 8 -11 8 C-11 7.34 -11 6.68 -11 6 C-10.01 6 -9.02 6 -8 6 C-7.7525 5.38125 -7.505 4.7625 -7.25 4.125 C-5.4936973 1.13928541 -3.46854079 0 0 0 Z " fill="#064363" transform="translate(298,231)"/>
<path d="M0 0 C2.475 0.99 2.475 0.99 5 2 C4.1875 3.9375 4.1875 3.9375 3 6 C2.01 6.33 1.02 6.66 0 7 C0.66 8.65 1.32 10.3 2 12 C-1.53600465 10.08864614 -3.78972846 8.37357234 -6 5 C-5.67 4.34 -5.34 3.68 -5 3 C-3.35 3.33 -1.7 3.66 0 4 C0 2.68 0 1.36 0 0 Z " fill="#204E69" transform="translate(302,182)"/>
<path d="M0 0 C0.99 0.33 1.98 0.66 3 1 C3.6875 3.0625 3.6875 3.0625 4 5 C4.66 5 5.32 5 6 5 C5.67 6.65 5.34 8.3 5 10 C4.67 9.34 4.34 8.68 4 8 C3.38125 8.185625 2.7625 8.37125 2.125 8.5625 C0 9 0 9 -2 8 C-1.125 1.125 -1.125 1.125 0 0 Z " fill="#084263" transform="translate(312,230)"/>
<path d="M0 0 C0.94875 0.04125 1.8975 0.0825 2.875 0.125 C3.205 3.095 3.535 6.065 3.875 9.125 C1.875 6.125 1.875 6.125 1.875 2.125 C-1.69282302 4.13225141 -1.69282302 4.13225141 -4.6875 6.875 C-5.161875 7.2875 -5.63625 7.7 -6.125 8.125 C-8.3125 7.8125 -8.3125 7.8125 -10.125 7.125 C-3.125 0.125 -3.125 0.125 0 0 Z " fill="#16524B" transform="translate(296.125,228.875)"/>
<path d="M0 0 C1.98 0 3.96 0 6 0 C5.67 2.64 5.34 5.28 5 8 C6.65 8.33 8.3 8.66 10 9 C7 11 7 11 5 11 C5 10.34 5 9.68 5 9 C4.34 9 3.68 9 3 9 C0.63315199 5.44972799 0 4.22215208 0 0 Z " fill="#1B4D64" transform="translate(306,193)"/>
<path d="M0 0 C0.33 0.66 0.66 1.32 1 2 C0.34 2 -0.32 2 -1 2 C-0.97679687 2.83144531 -0.95359375 3.66289062 -0.9296875 4.51953125 C-0.90261719 6.14955078 -0.90261719 6.14955078 -0.875 7.8125 C-0.85179687 8.89144531 -0.82859375 9.97039062 -0.8046875 11.08203125 C-1 14 -1 14 -3 17 C-3.33 16.01 -3.66 15.02 -4 14 C-4.99 14.495 -4.99 14.495 -6 15 C-5.5758071 13.05954312 -5.13514005 11.12268239 -4.6875 9.1875 C-4.44386719 8.10855469 -4.20023438 7.02960938 -3.94921875 5.91796875 C-3.01798408 3.0552844 -2.31239465 1.84602934 0 0 Z " fill="#153D52" transform="translate(55,219)"/>
<path d="M0 0 C-0.5929915 1.46291304 -1.19983823 2.92021513 -1.8125 4.375 C-2.14894531 5.18710938 -2.48539062 5.99921875 -2.83203125 6.8359375 C-4 9 -4 9 -7 11 C-7.99 11 -8.98 11 -10 11 C-10 10.01 -10 9.02 -10 8 C-8.35 8 -6.7 8 -5 8 C-5.33 5.36 -5.66 2.72 -6 0 C-3.50907189 -1.24546405 -2.58919267 -0.7767578 0 0 Z " fill="#BCCED1" transform="translate(317,157)"/>
<path d="M0 0 C0.33 0 0.66 0 1 0 C1.020625 1.258125 1.04125 2.51625 1.0625 3.8125 C1.23042535 6.01699328 1.23042535 6.01699328 2 8 C4.28980909 9.68983507 6.21434833 10.18962861 9 11 C8.34 11.66 7.68 12.32 7 13 C3.375 12.625 3.375 12.625 0 12 C-0.19477739 10.37585622 -0.38059458 8.75063577 -0.5625 7.125 C-0.66691406 6.22007812 -0.77132813 5.31515625 -0.87890625 4.3828125 C-1 2 -1 2 0 0 Z " fill="#123950" transform="translate(339,223)"/>
<path d="M0 0 C0.66 0 1.32 0 2 0 C2.1953125 6.0546875 2.1953125 6.0546875 2 8 C1.34 8.66 0.68 9.32 0 10 C-0.99 10 -1.98 10 -3 10 C-3.99 10.495 -3.99 10.495 -5 11 C-3.78065514 6.96678237 -2.44045073 3.45730521 0 0 Z " fill="#094163" transform="translate(279,222)"/>
<path d="M0 0 C0.33 2.31 0.66 4.62 1 7 C2.65 7 4.3 7 6 7 C6.33 6.01 6.66 5.02 7 4 C7 5.98 7 7.96 7 10 C6.34 10 5.68 10 5 10 C5 9.34 5 8.68 5 8 C3.35 8.33 1.7 8.66 0 9 C-0.2475 8.38125 -0.495 7.7625 -0.75 7.125 C-2.20628639 4.64931313 -3.37812506 4.04874998 -6 3 C-3.375 0 -3.375 0 0 0 Z " fill="#285067" transform="translate(322,198)"/>
<path d="M0 0 C1.32 0.33 2.64 0.66 4 1 C3.01 1 2.02 1 1 1 C-0.81602517 5.53832753 -0.81602517 5.53832753 0 10 C-1.65 9.67 -3.3 9.34 -5 9 C-5.33 9.66 -5.66 10.32 -6 11 C-6 8.69 -6 6.38 -6 4 C-4.35 3.67 -2.7 3.34 -1 3 C-0.67 2.01 -0.34 1.02 0 0 Z " fill="#093C46" transform="translate(270,175)"/>
<path d="M0 0 C0.66 0 1.32 0 2 0 C2 1.32 2 2.64 2 4 C2.99 4.33 3.98 4.66 5 5 C5.144375 5.78375 5.28875 6.5675 5.4375 7.375 C5.87798925 9.96421018 5.87798925 9.96421018 7 12 C9.01669827 13.13350534 9.01669827 13.13350534 11 14 C8.1875 14.25 8.1875 14.25 5 14 C3.125 12.25 3.125 12.25 2 10 C2 8.68 2 7.36 2 6 C1.34 5.67 0.68 5.34 0 5 C0 3.35 0 1.7 0 0 Z " fill="#104546" transform="translate(264,208)"/>
<path d="M0 0 C2.31 0.33 4.62 0.66 7 1 C6.01 1.495 6.01 1.495 5 2 C5 4.31 5 6.62 5 9 C4.01 9.495 4.01 9.495 3 10 C2.49596232 8.70990357 1.99690074 7.41786211 1.5 6.125 C1.2215625 5.40570313 0.943125 4.68640625 0.65625 3.9453125 C0 2 0 2 0 0 Z " fill="#074264" transform="translate(326,222)"/>
<path d="M0 0 C0.99 0.66 1.98 1.32 3 2 C6.19806665 2.4603764 6.19806665 2.4603764 9.6875 2.625 C11.45673828 2.73714844 11.45673828 2.73714844 13.26171875 2.8515625 C14.61716797 2.92503906 14.61716797 2.92503906 16 3 C16 3.33 16 3.66 16 4 C15.15695313 4.06058594 14.31390625 4.12117187 13.4453125 4.18359375 C12.34960938 4.26738281 11.25390625 4.35117188 10.125 4.4375 C8.48917969 4.55931641 8.48917969 4.55931641 6.8203125 4.68359375 C4.05271029 4.83001703 4.05271029 4.83001703 2 6 C-0.625 5.0625 -0.625 5.0625 -3 4 C-2.01 2.68 -1.02 1.36 0 0 Z " fill="#133C55" transform="translate(185,233)"/>
<path d="M0 0 C1.32 0.66 2.64 1.32 4 2 C4 2.66 4 3.32 4 4 C3.34 4 2.68 4 2 4 C1.67 5.65 1.34 7.3 1 9 C-3.27786748 8.50639991 -6.09567131 7.95216435 -10 6 C-6.37 6 -2.74 6 1 6 C0.67 4.02 0.34 2.04 0 0 Z " fill="#65A760" transform="translate(336,213)"/>
<path d="M0 0 C1.32 0.33 2.64 0.66 4 1 C2.79618552 3.49361571 1.54571278 5.68143083 0 8 C-0.66 8 -1.32 8 -2 8 C-2 7.34 -2 6.68 -2 6 C-2.66 6 -3.32 6 -4 6 C-4 7.32 -4 8.64 -4 10 C-4.66 10 -5.32 10 -6 10 C-6 8.02 -6 6.04 -6 4 C-4.35 3.67 -2.7 3.34 -1 3 C-0.67 2.01 -0.34 1.02 0 0 Z " fill="#CADAC9" transform="translate(306,172)"/>
<path d="M0 0 C0.99 0.66 1.98 1.32 3 2 C2.67 3.98 2.34 5.96 2 8 C0.35 8.33 -1.3 8.66 -3 9 C-2.5020163 5.26512223 -2.12508244 3.18762365 0 0 Z " fill="#184B60" transform="translate(115,173)"/>
<path d="M0 0 C1.98 0.66 3.96 1.32 6 2 C5.34 2.66 4.68 3.32 4 4 C3.01 4 2.02 4 1 4 C0.67 5.65 0.34 7.3 0 9 C0.99 9.33 1.98 9.66 3 10 C1.68 10.33 0.36 10.66 -1 11 C-2.26264601 6.70700357 -1.62950412 4.12168689 0 0 Z " fill="#285362" transform="translate(327,167)"/>
<path d="M0 0 C2.475 0.99 2.475 0.99 5 2 C4.34 3.32 3.68 4.64 3 6 C2.34 6 1.68 6 1 6 C1 5.01 1 4.02 1 3 C0.38511719 3.10699219 -0.22976563 3.21398437 -0.86328125 3.32421875 C-1.67152344 3.44410156 -2.47976563 3.56398437 -3.3125 3.6875 C-4.11300781 3.81511719 -4.91351563 3.94273437 -5.73828125 4.07421875 C-8 4 -8 4 -9.79296875 2.51953125 C-10.19128906 2.01808594 -10.58960938 1.51664063 -11 1 C-10.28972656 1.01160156 -9.57945312 1.02320313 -8.84765625 1.03515625 C-7.92855469 1.04417969 -7.00945312 1.05320313 -6.0625 1.0625 C-4.68771484 1.07990234 -4.68771484 1.07990234 -3.28515625 1.09765625 C-1.03406673 1.25949049 -1.03406673 1.25949049 0 0 Z " fill="#D0DECF" transform="translate(331,189)"/>
<path d="M0 0 C12.43946188 -1.22690583 12.43946188 -1.22690583 16.265625 1.78125 C17.72868059 3.7982781 18.9433191 5.74574741 20 8 C19.01 8.495 19.01 8.495 18 9 C16.62437146 7.71034824 15.29233607 6.37310707 14 5 C14 4.34 14 3.68 14 3 C13.34 3 12.68 3 12 3 C12 2.34 12 1.68 12 1 C8.04 1 4.08 1 0 1 C0 0.67 0 0.34 0 0 Z " fill="#C4D9E2" transform="translate(189,163)"/>
<path d="M0 0 C1.9375 0.6875 1.9375 0.6875 4 2 C4.75 4.625 4.75 4.625 5 7 C0.31908701 7 -0.62101604 6.00354129 -4 3 C-2.68 2.01 -1.36 1.02 0 0 Z " fill="#14465E" transform="translate(317,152)"/>
<path d="M0 0 C1.37432457 3.81756824 0.67975039 7.07255329 0 11 C-3.54674003 12.18224668 -5.97522995 11.89329634 -9.6875 11.5625 C-10.86699219 11.46066406 -12.04648438 11.35882813 -13.26171875 11.25390625 C-14.16535156 11.17011719 -15.06898437 11.08632812 -16 11 C-16 10.67 -16 10.34 -16 10 C-11.38 10 -6.76 10 -2 10 C-1.855625 8.906875 -1.71125 7.81375 -1.5625 6.6875 C-1 3 -1 3 0 0 Z " fill="#4F7386" transform="translate(97,226)"/>
<path d="M0 0 C1.25 6.625 1.25 6.625 -1 10 C-1 7.69 -1 5.38 -1 3 C-3.51083114 4.25541557 -3.87125446 5.50063488 -5 8 C-6 5 -6 5 -6 2 C-3 0 -3 0 0 0 Z " fill="#15504B" transform="translate(282,219)"/>
<path d="M0 0 C0.66 0 1.32 0 2 0 C2 3.63 2 7.26 2 11 C1.01 10.67 0.02 10.34 -1 10 C-1.02689216 8.52093108 -1.04634621 7.04172517 -1.0625 5.5625 C-1.07410156 4.73878906 -1.08570313 3.91507813 -1.09765625 3.06640625 C-1 1 -1 1 0 0 Z " fill="#044361" transform="translate(41,198)"/>
<path d="M0 0 C0.99 0.66 1.98 1.32 3 2 C1.02 4.97 -0.96 7.94 -3 11 C-3.66 10.67 -4.32 10.34 -5 10 C-4.6875 7.625 -4.6875 7.625 -4 5 C-3.01 4.34 -2.02 3.68 -1 3 C-0.67 2.01 -0.34 1.02 0 0 Z " fill="#163B51" transform="translate(232,176)"/>
<path d="M0 0 C0.66 0.33 1.32 0.66 2 1 C0.68 5.29 -0.64 9.58 -2 14 C-2.66 14 -3.32 14 -4 14 C-4 11.36 -4 8.72 -4 6 C-3.01 6 -2.02 6 -1 6 C-1.020625 5.195625 -1.04125 4.39125 -1.0625 3.5625 C-1 1 -1 1 0 0 Z " fill="#204E5B" transform="translate(90,202)"/>
<path d="M0 0 C0.33 0 0.66 0 1 0 C1 2.97 1 5.94 1 9 C3.64 9 6.28 9 9 9 C6.04929881 10.96713413 4.46418389 11.65358161 1 12 C0.01 11.34 -0.98 10.68 -2 10 C-1.85950482 8.52031676 -1.71245174 7.04125484 -1.5625 5.5625 C-1.48128906 4.73878906 -1.40007812 3.91507813 -1.31640625 3.06640625 C-1 1 -1 1 0 0 Z " fill="#69AD5E" transform="translate(325,168)"/>
<path d="M0 0 C0.33 0.66 0.66 1.32 1 2 C2.32 1.67 3.64 1.34 5 1 C5 2.32 5 3.64 5 5 C4 6 4 6 0.4375 6.0625 C-0.696875 6.041875 -1.83125 6.02125 -3 6 C-2.625 3.5625 -2.625 3.5625 -2 1 C-1.34 0.67 -0.68 0.34 0 0 Z " fill="#DADEDC" transform="translate(329,160)"/>
<path d="M0 0 C-0.33 1.65 -0.66 3.3 -1 5 C-1.99 5.33 -2.98 5.66 -4 6 C-4 5.34 -4 4.68 -4 4 C-5.65 4 -7.3 4 -9 4 C-8.34 3.67 -7.68 3.34 -7 3 C-7 2.34 -7 1.68 -7 1 C-4 0 -4 0 0 0 Z " fill="#094065" transform="translate(329,234)"/>
<path d="M0 0 C0.66 0.33 1.32 0.66 2 1 C1.484375 2.093125 0.96875 3.18625 0.4375 4.3125 C-1.59942679 9.61422066 -0.83991977 14.49498367 0 20 C-0.99 19.34 -1.98 18.68 -3 18 C-3.98799446 12.18889278 -2.98087333 6.47653214 -1 1 C-0.67 0.67 -0.34 0.34 0 0 Z " fill="#73B562" transform="translate(287,187)"/>
<path d="M0 0 C0.99 0.33 1.98 0.66 3 1 C2.360625 1.7425 1.72125 2.485 1.0625 3.25 C-0.78333407 5.7111121 -1.56069174 7.03466926 -2 10 C-3.65 10.33 -5.3 10.66 -7 11 C-4.84921278 7.14341602 -2.76544722 3.45680903 0 0 Z " fill="#21455B" transform="translate(240,191)"/>
<path d="M0 0 C-2 2 -2 2 -5 2.875 C-8.10488746 3.69978825 -8.10488746 3.69978825 -9.375 6.125 C-9.58125 6.74375 -9.7875 7.3625 -10 8 C-10.66 7.67 -11.32 7.34 -12 7 C-12.33 7.99 -12.66 8.98 -13 10 C-12.78233948 6.19094094 -12.00605451 5.00633611 -9.3125 2.1875 C-5.74491679 -0.16845118 -4.16760893 -0.49614392 0 0 Z " fill="#8EBA6B" transform="translate(327,167)"/>
<path d="M0 0 C0.99 1.485 0.99 1.485 2 3 C3.90706576 3.40087331 3.90706576 3.40087331 6 3.25 C7.051875 3.22679687 7.051875 3.22679687 8.125 3.203125 C10.08936628 3.10043334 10.08936628 3.10043334 12 2 C11.67 3.32 11.34 4.64 11 6 C9.35425434 6.02688151 7.70838587 6.04634123 6.0625 6.0625 C5.14597656 6.07410156 4.22945313 6.08570313 3.28515625 6.09765625 C1 6 1 6 0 5 C-0.04063832 3.33382885 -0.042721 1.66611905 0 0 Z " fill="#0B4653" transform="translate(298,235)"/>
<path d="M0 0 C2.23551759 3.35327639 2.17283528 3.90743657 1.625 7.6875 C1.51414062 8.49574219 1.40328125 9.30398437 1.2890625 10.13671875 C1.19367187 10.75160156 1.09828125 11.36648437 1 12 C-0.32 12.33 -1.64 12.66 -3 13 C-2.343621 8.51474352 -1.29925791 4.33085971 0 0 Z " fill="#275066" transform="translate(57,205)"/>
<path d="M0 0 C0.66 0 1.32 0 2 0 C1.70703125 1.98567708 1.4140625 3.97135417 1.12109375 5.95703125 C0.86095201 8.2025342 0.86095201 8.2025342 2 11 C0.68 11.33 -0.64 11.66 -2 12 C-2.17835515 7.45194365 -1.99785435 4.1205746 0 0 Z " fill="#1A4960" transform="translate(109,190)"/>
<path d="M0 0 C1.86251028 6.78181223 -1.13901649 11.89213287 -4 18 C-5.68550367 14.62899267 -3.68863036 11.27985368 -2.5625 7.875 C-2.19801758 6.74384766 -2.19801758 6.74384766 -1.82617188 5.58984375 C-1.22404181 3.72442121 -0.61286537 1.86192317 0 0 Z " fill="#CDE2E7" transform="translate(54,176)"/>
<path d="M0 0 C0.33 0 0.66 0 1 0 C1 1.65 1 3.3 1 5 C1.639375 5.226875 2.27875 5.45375 2.9375 5.6875 C5 7 5 7 5.75 9.625 C5.8325 10.40875 5.915 11.1925 6 12 C3.53199953 10.84826645 1.95216435 9.95216435 0 8 C-0.26991906 5.31160615 -0.08737357 2.70858064 0 0 Z " fill="#659452" transform="translate(314,177)"/>
<path d="M0 0 C2.64 0 5.28 0 8 0 C8 0.33 8 0.66 8 1 C5.69 1 3.38 1 1 1 C1.3403125 2.6396875 1.3403125 2.6396875 1.6875 4.3125 C2 8 2 8 0.9375 9.9375 C-1.76212488 11.41793945 -3.97570019 11.20161999 -7 11 C-7 10.67 -7 10.34 -7 10 C-5.35 9.67 -3.7 9.34 -2 9 C-1.34 6.03 -0.68 3.06 0 0 Z " fill="#5C9C5D" transform="translate(300,159)"/>
<path d="M0 0 C3 1 3 1 4.1875 3.0625 C4.455625 3.701875 4.72375 4.34125 5 5 C3.68 5 2.36 5 1 5 C1.33 6.65 1.66 8.3 2 10 C0.68 9.67 -0.64 9.34 -2 9 C-1.34 9 -0.68 9 0 9 C-0.185625 7.700625 -0.37125 6.40125 -0.5625 5.0625 C-0.87890625 2.84765625 -0.87890625 2.84765625 -1 1 C-0.67 0.67 -0.34 0.34 0 0 Z " fill="#2B5467" transform="translate(340,192)"/>
<path d="M0 0 C2.96404505 2.80804268 5.44499019 5.18315774 7 9 C2.25 8.125 2.25 8.125 0 7 C0 4.69 0 2.38 0 0 Z " fill="#1D4052" transform="translate(202,184)"/>
<path d="M0 0 C0.99 0 1.98 0 3 0 C4.42258812 3.82320557 5.24042276 6.91281305 5 11 C1.19015156 8.22920113 0.93159248 4.37131855 0 0 Z " fill="#14394E" transform="translate(25,164)"/>
<path d="M0 0 C7.42857143 -0.28571429 7.42857143 -0.28571429 11 2 C11 3.98 11 5.96 11 8 C9 5 9 5 9 3 C7.88625 2.87625 6.7725 2.7525 5.625 2.625 C2 2 2 2 0 0 Z " fill="#6EAD5A" transform="translate(265,202)"/>
<path d="M0 0 C0.66 0 1.32 0 2 0 C2 1.98 2 3.96 2 6 C-0.64 6 -3.28 6 -6 6 C-6 5.34 -6 4.68 -6 4 C-4.36368108 2.95107762 -2.69514137 1.95093297 -1 1 C-0.67 0.67 -0.34 0.34 0 0 Z " fill="#CBD8DE" transform="translate(336,156)"/>
<path d="M0 0 C0.33 0.66 0.66 1.32 1 2 C1.66 2 2.32 2 3 2 C3.66 3.98 4.32 5.96 5 8 C5.66 8 6.32 8 7 8 C6.67 8.66 6.34 9.32 6 10 C5.484375 9.360625 4.96875 8.72125 4.4375 8.0625 C1.34064377 5.44208319 -1.02067623 5.30610183 -5 5 C-4.360625 4.731875 -3.72125 4.46375 -3.0625 4.1875 C-0.66868314 3.11332248 -0.66868314 3.11332248 0 0 Z " fill="#114E4D" transform="translate(333,205)"/>
<path d="M0 0 C3.0466145 1.01553817 5.31143836 2.20762558 8 4 C5.03 4.66 2.06 5.32 -1 6 C-0.67 4.68 -0.34 3.36 0 2 C-0.66 1.67 -1.32 1.34 -2 1 C-1.34 0.67 -0.68 0.34 0 0 Z " fill="#DDDDE3" transform="translate(318,190)"/>
<path d="M0 0 C0 0.33 0 0.66 0 1 C-0.74765625 1.04898438 -1.4953125 1.09796875 -2.265625 1.1484375 C-3.25046875 1.22320312 -4.2353125 1.29796875 -5.25 1.375 C-6.71179688 1.47941406 -6.71179688 1.47941406 -8.203125 1.5859375 C-10.92302337 1.98860402 -12.60681469 2.72088371 -15 4 C-17.75 4.125 -17.75 4.125 -20 4 C-19 2 -19 2 -16.1875 0.875 C-10.89869835 -0.54124814 -5.42688321 -0.16040049 0 0 Z " fill="#BCD0D8" transform="translate(370,162)"/>
<path d="M0 0 C0.66 0 1.32 0 2 0 C1.67 2.64 1.34 5.28 1 8 C2.65 8 4.3 8 6 8 C3.8614515 10.1385485 2.86724686 10.42655063 0 11 C-0.66 9.02 -1.32 7.04 -2 5 C-1.34 5 -0.68 5 0 5 C0 3.35 0 1.7 0 0 Z " fill="#BBCAD2" transform="translate(338,157)"/>
<path d="M0 0 C0 0.66 0 1.32 0 2 C-1.423125 2.37125 -1.423125 2.37125 -2.875 2.75 C-6.08693191 3.6857077 -6.08693191 3.6857077 -7.375 6.125 C-7.58125 6.74375 -7.7875 7.3625 -8 8 C-8.99 7.34 -9.98 6.68 -11 6 C-9.92781799 4.98805294 -8.84173622 3.99081943 -7.75 3 C-7.14671875 2.443125 -6.5434375 1.88625 -5.921875 1.3125 C-4 0 -4 0 0 0 Z " fill="#185346" transform="translate(300,181)"/>
<path d="M0 0 C0.66 1.32 1.32 2.64 2 4 C-0.89234315 4.82638376 -2.88742431 5 -6 5 C-6 4.34 -6 3.68 -6 3 C-6.66 2.67 -7.32 2.34 -8 2 C-5.53925394 0.76962697 -3.7202437 1 -1 1 C-0.67 0.67 -0.34 0.34 0 0 Z " fill="#05344A" transform="translate(388,178)"/>
<path d="M0 0 C4.62 0 9.24 0 14 0 C13.34 2.64 12.68 5.28 12 8 C11.67 8 11.34 8 11 8 C11 5.69 11 3.38 11 1 C7.37 1 3.74 1 0 1 C0 0.67 0 0.34 0 0 Z " fill="#ADCAD6" transform="translate(104,163)"/>
<path d="M0 0 C2.475 0.495 2.475 0.495 5 1 C4.67 2.98 4.34 4.96 4 7 C2.68 6.67 1.36 6.34 0 6 C0 4.02 0 2.04 0 0 Z " fill="#074262" transform="translate(327,170)"/>
<path d="M0 0 C1.65 0 3.3 0 5 0 C5.66 2.31 6.32 4.62 7 7 C6.34 7.66 5.68 8.32 5 9 C4 8 4 8 3.9375 5.4375 C3.958125 4.633125 3.97875 3.82875 4 3 C3.34 3 2.68 3 2 3 C2 2.34 2 1.68 2 1 C1.34 0.67 0.68 0.34 0 0 Z " fill="#AEC1CD" transform="translate(323,153)"/>
<path d="M0 0 C1.98 0.99 1.98 0.99 4 2 C4 4.64 4 7.28 4 10 C3.67 9.34 3.34 8.68 3 8 C2.01 7.67 1.02 7.34 0 7 C0.33 6.01 0.66 5.02 1 4 C0.61067144 1.85744207 0.61067144 1.85744207 0 0 Z " fill="#194358" transform="translate(372,210)"/>
<path d="M0 0 C3.67033927 3.27708863 5.69281189 6.71522208 8 11 C7.01 11.33 6.02 11.66 5 12 C4.731875 11.236875 4.46375 10.47375 4.1875 9.6875 C3.2011342 6.99574277 3.2011342 6.99574277 1.375 5.4375 C0 4 0 4 0 0 Z " fill="#254458" transform="translate(215,202)"/>
<path d="M0 0 C2 2 2 2 2.125 4.625 C2.08375 5.40875 2.0425 6.1925 2 7 C1.01 7 0.02 7 -1 7 C-1.33 7.99 -1.66 8.98 -2 10 C-2.79198196 7.14886495 -3.21481122 5.55237171 -2.125 2.75 C-1 1 -1 1 0 0 Z " fill="#0F4967" transform="translate(87,201)"/>
<path d="M0 0 C0.99 0.33 1.98 0.66 3 1 C0.03 4.96 0.03 4.96 -3 9 C-3.66 8.34 -4.32 7.68 -5 7 C-3.70700306 4.11562221 -2.34058637 2.12780579 0 0 Z " fill="#E3EFF3" transform="translate(234,196)"/>
<path d="M0 0 C2 3.75 2 3.75 2 6 C4.31 6 6.62 6 9 6 C9.33 6.66 9.66 7.32 10 8 C6.37 7.67 2.74 7.34 -1 7 C-0.67 4.69 -0.34 2.38 0 0 Z " fill="#355464" transform="translate(340,158)"/>
<path d="M0 0 C0.33 1.32 0.66 2.64 1 4 C1.66 4.66 2.32 5.32 3 6 C2.67 6.99 2.34 7.98 2 9 C0.68 9.33 -0.64 9.66 -2 10 C-1.34 6.7 -0.68 3.4 0 0 Z " fill="#335F76" transform="translate(60,195)"/>
<path d="M0 0 C0.33 0.66 0.66 1.32 1 2 C0.34 2 -0.32 2 -1 2 C-1 2.66 -1 3.32 -1 4 C0.65 4 2.3 4 4 4 C4 4.33 4 4.66 4 5 C1.69 5.33 -0.62 5.66 -3 6 C-3.66 4.35 -4.32 2.7 -5 1 C-3.35 0.67 -1.7 0.34 0 0 Z " fill="#B8CDD5" transform="translate(307,188)"/>
<path d="M0 0 C2.9375 0.375 2.9375 0.375 6 1 C6.33 1.66 6.66 2.32 7 3 C6.01 3.33 5.02 3.66 4 4 C4 4.66 4 5.32 4 6 C1.525 5.01 1.525 5.01 -1 4 C-0.34 3.67 0.32 3.34 1 3 C0.67 2.01 0.34 1.02 0 0 Z " fill="#123B53" transform="translate(377,177)"/>
<path d="M0 0 C0.66 0 1.32 0 2 0 C3.171875 5.859375 3.171875 5.859375 3 8 C1.68 9.32 0.36 10.64 -1 12 C-0.67 8.04 -0.34 4.08 0 0 Z " fill="#60A15F" transform="translate(282,220)"/>
<path d="M0 0 C1.65 0 3.3 0 5 0 C5 0.99 5 1.98 5 3 C2.5 4.6875 2.5 4.6875 0 6 C-0.66 5.34 -1.32 4.68 -2 4 C-1.34 4 -0.68 4 0 4 C0 2.68 0 1.36 0 0 Z " fill="#063559" transform="translate(268,207)"/>
<path d="M0 0 C0.66 0.33 1.32 0.66 2 1 C2 2.98 2 4.96 2 7 C-0.64 7 -3.28 7 -6 7 C-6.33 6.34 -6.66 5.68 -7 5 C-5.02 5 -3.04 5 -1 5 C-0.67 3.35 -0.34 1.7 0 0 Z " fill="#65A75B" transform="translate(283,172)"/>
<path d="M0 0 C0.99 0 1.98 0 3 0 C2.68289063 0.54140625 2.36578125 1.0828125 2.0390625 1.640625 C0.81692026 4.4157149 0.59056564 6.73208098 0.375 9.75 C0.30023438 10.73484375 0.22546875 11.7196875 0.1484375 12.734375 C0.09945313 13.48203125 0.05046875 14.2296875 0 15 C-0.33 15 -0.66 15 -1 15 C-1.02693575 12.87506859 -1.04636628 10.75004088 -1.0625 8.625 C-1.07410156 7.44164062 -1.08570313 6.25828125 -1.09765625 5.0390625 C-1 2 -1 2 0 0 Z " fill="#C7DCBB" transform="translate(314,169)"/>
<path d="M0 0 C0.66 0 1.32 0 2 0 C2 0.66 2 1.32 2 2 C2.66 2 3.32 2 4 2 C3.67 3.32 3.34 4.64 3 6 C1.35 6 -0.3 6 -2 6 C-1.34 4.02 -0.68 2.04 0 0 Z " fill="#CAD2D8" transform="translate(323,154)"/>
<path d="M0 0 C2.97 0 5.94 0 9 0 C9 0.66 9 1.32 9 2 C2.71428571 4.42857143 2.71428571 4.42857143 -1 3 C-0.67 2.01 -0.34 1.02 0 0 Z " fill="#03324F" transform="translate(339,235)"/>
<path d="M0 0 C2 1 2 1 3.125 3.875 C4 7 4 7 4 10 C2.0625 9.25 2.0625 9.25 0 8 C-1.27677226 5.05360248 -0.96706319 3.00864103 0 0 Z " fill="#10445B" transform="translate(75,224)"/>
<path d="M0 0 C0.99 0.33 1.98 0.66 3 1 C3 3.97 3 6.94 3 10 C2.67 9.34 2.34 8.68 2 8 C1.34 8 0.68 8 0 8 C0 5.36 0 2.72 0 0 Z " fill="#6BAC5E" transform="translate(323,220)"/>
<path d="M0 0 C-0.33 0.99 -0.66 1.98 -1 3 C-3.9375 2.625 -3.9375 2.625 -7 2 C-7.33 1.34 -7.66 0.68 -8 0 C-4.71023192 -1.09658936 -3.28696233 -0.79953138 0 0 Z " fill="#113F5A" transform="translate(359,221)"/>
<path d="M0 0 C0.99 0 1.98 0 3 0 C3 0.66 3 1.32 3 2 C5.475 2.99 5.475 2.99 8 4 C7.01 4.66 6.02 5.32 5 6 C4.67 5.34 4.34 4.68 4 4 C2.35 4 0.7 4 -1 4 C-0.67 2.68 -0.34 1.36 0 0 Z " fill="#33586D" transform="translate(330,198)"/>
<path d="M0 0 C0 1.32 0 2.64 0 4 C-1.32 4.33 -2.64 4.66 -4 5 C-4.66 3.68 -5.32 2.36 -6 1 C-3 0 -3 0 0 0 Z " fill="#C6D5E1" transform="translate(340,197)"/>
<path d="M0 0 C2 3 2 3 1.625 5.6875 C1.41875 6.450625 1.2125 7.21375 1 8 C0.01 7.67 -0.98 7.34 -2 7 C-1.125 1.125 -1.125 1.125 0 0 Z " fill="#315A6D" transform="translate(64,185)"/>
<path d="M0 0 C0.66 0.33 1.32 0.66 2 1 C1.67 3.31 1.34 5.62 1 8 C1.66 8.33 2.32 8.66 3 9 C2.34 9.66 1.68 10.32 1 11 C0.63743142 9.5437328 0.28520207 8.08488815 -0.0625 6.625 C-0.35833984 5.40683594 -0.35833984 5.40683594 -0.66015625 4.1640625 C-1 2 -1 2 0 0 Z " fill="#265166" transform="translate(34,187)"/>
<path d="M0 0 C0.99 0 1.98 0 3 0 C2.4140625 6.15234375 2.4140625 6.15234375 2 8 C1.01 8.495 1.01 8.495 0 9 C0 6.03 0 3.06 0 0 Z " fill="#71B45C" transform="translate(307,228)"/>
<path d="M0 0 C2 1.5625 2 1.5625 4 4 C4.25 7.75 4.25 7.75 4 11 C2 9 2 9 1.875 6.375 C1.91625 5.59125 1.9575 4.8075 2 4 C1.01 3.67 0.02 3.34 -1 3 C-0.67 2.01 -0.34 1.02 0 0 Z " fill="#06334C" transform="translate(388,202)"/>
<path d="M0 0 C1.5625 1.8125 1.5625 1.8125 3 4 C2.67 4.99 2.34 5.98 2 7 C-0.64 7 -3.28 7 -6 7 C-3 5 -3 5 0 5 C0 3.35 0 1.7 0 0 Z " fill="#63A254" transform="translate(274,188)"/>
<path d="M0 0 C0.99 0 1.98 0 3 0 C2.34 2.64 1.68 5.28 1 8 C0.34 8 -0.32 8 -1 8 C-0.67 5.36 -0.34 2.72 0 0 Z " fill="#124A5B" transform="translate(92,192)"/>
<path d="M0 0 C0.33 0 0.66 0 1 0 C1 1.65 1 3.3 1 5 C1.66 5.33 2.32 5.66 3 6 C0.625 7.5625 0.625 7.5625 -2 9 C-2.66 8.67 -3.32 8.34 -4 8 C-3.2884375 7.13375 -3.2884375 7.13375 -2.5625 6.25 C-1.0515133 4.07417916 -0.45963849 2.57397552 0 0 Z " fill="#C9DEC0" transform="translate(337,180)"/>
<path d="M0 0 C0.33 0.66 0.66 1.32 1 2 C-0.70135776 5.23257974 -2.76039553 8.12050853 -5 11 C-5.66 10.67 -6.32 10.34 -7 10 C-3.535 5.05 -3.535 5.05 0 0 Z " fill="#CDE0E8" transform="translate(244,164)"/>
<path d="M0 0 C0.66 0 1.32 0 2 0 C2.125 5.75 2.125 5.75 1 8 C0.01 8 -0.98 8 -2 8 C-2 7.34 -2 6.68 -2 6 C-1.34 6 -0.68 6 0 6 C-0.2784375 4.7934375 -0.2784375 4.7934375 -0.5625 3.5625 C-0.706875 2.716875 -0.85125 1.87125 -1 1 C-0.67 0.67 -0.34 0.34 0 0 Z " fill="#084267" transform="translate(296,160)"/>
<path d="M0 0 C5.445 1.485 5.445 1.485 11 3 C11 3.33 11 3.66 11 4 C4.375 4.125 4.375 4.125 1 3 C0.67 2.01 0.34 1.02 0 0 Z " fill="#DCEBF0" transform="translate(373,163)"/>
<path d="M0 0 C0 0.66 0 1.32 0 2 C-3.465 3.485 -3.465 3.485 -7 5 C-7.33 3.68 -7.66 2.36 -8 1 C-5.23735711 0.40267181 -2.83967231 0 0 0 Z " fill="#0C4949" transform="translate(288,161)"/>
<path d="M0 0 C1.32 0 2.64 0 4 0 C4 0.99 4 1.98 4 3 C-0.29 3 -4.58 3 -9 3 C-9 2.67 -9 2.34 -9 2 C-6.94921875 1.77213542 -4.8984375 1.54427083 -2.84765625 1.31640625 C-0.98859771 1.18113386 -0.98859771 1.18113386 0 0 Z " fill="#1C4A62" transform="translate(114,160)"/>
<path d="M0 0 C0 0.66 0 1.32 0 2 C1.65 2.33 3.3 2.66 5 3 C4.01 3.495 4.01 3.495 3 4 C2.67 4.66 2.34 5.32 2 6 C1.34 5.67 0.68 5.34 0 5 C0 4.34 0 3.68 0 3 C-1.32 2.34 -2.64 1.68 -4 1 C-2 0 -2 0 0 0 Z " fill="#09354A" transform="translate(338,152)"/>
<path d="M0 0 C0.33 0.99 0.66 1.98 1 3 C3.31 3.33 5.62 3.66 8 4 C5.74778616 5.36741555 4.47442242 6.04066478 1.8125 5.8125 C1.214375 5.544375 0.61625 5.27625 0 5 C-0.33 4.01 -0.66 3.02 -1 2 C-0.67 1.34 -0.34 0.68 0 0 Z " fill="#164963" transform="translate(80,234)"/>
<path d="M0 0 C0.99 0.33 1.98 0.66 3 1 C2.67 1.99 2.34 2.98 2 4 C-0.5625 5.1875 -0.5625 5.1875 -3 6 C-2.42655063 3.13275314 -2.1385485 2.1385485 0 0 Z " fill="#1E4455" transform="translate(386,227)"/>
<path d="M0 0 C0.33 0.99 0.66 1.98 1 3 C0.01 4.485 0.01 4.485 -1 6 C-2.32 6 -3.64 6 -5 6 C-5 5.01 -5 4.02 -5 3 C-3.35 2.67 -1.7 2.34 0 2 C0 1.34 0 0.68 0 0 Z " fill="#0E4360" transform="translate(339,220)"/>
<path d="M0 0 C0.99 0 1.98 0 3 0 C2.67 2.31 2.34 4.62 2 7 C1.34 7 0.68 7 0 7 C0 4.69 0 2.38 0 0 Z " fill="#7DB966" transform="translate(265,195)"/>
<path d="M0 0 C1.98 0.99 1.98 0.99 4 2 C3.34 2 2.68 2 2 2 C2.33 4.64 2.66 7.28 3 10 C2.01 9.67 1.02 9.34 0 9 C0 6.03 0 3.06 0 0 Z " fill="#254F60" transform="translate(309,155)"/>
<path d="M0 0 C0.763125 0.20625 1.52625 0.4125 2.3125 0.625 C2.6425 1.615 2.9725 2.605 3.3125 3.625 C-1.1425 2.635 -1.1425 2.635 -5.6875 1.625 C-2.6875 -0.375 -2.6875 -0.375 0 0 Z " fill="#CCDEE5" transform="translate(350.6875,232.375)"/>
<path d="M0 0 C1.2065625 0.0309375 1.2065625 0.0309375 2.4375 0.0625 C2.125 2 2.125 2 1.4375 4.0625 C0.4475 4.3925 -0.5425 4.7225 -1.5625 5.0625 C-2.2225 3.7425 -2.8825 2.4225 -3.5625 1.0625 C-2.5625 0.0625 -2.5625 0.0625 0 0 Z " fill="#DDD9E7" transform="translate(311.5625,168.9375)"/>
<path d="M0 0 C0.66 0 1.32 0 2 0 C2 0.66 2 1.32 2 2 C3.32 2.33 4.64 2.66 6 3 C5.34 3 4.68 3 4 3 C4 3.66 4 4.32 4 5 C2.68 5 1.36 5 0 5 C0 3.35 0 1.7 0 0 Z " fill="#094757" transform="translate(301,154)"/>
<path d="M0 0 C0.433125 0.45375 0.86625 0.9075 1.3125 1.375 C3.10798342 3.20024334 3.10798342 3.20024334 6 5 C3 6 3 6 0.8125 5.0625 C0.214375 4.711875 -0.38375 4.36125 -1 4 C-0.67 2.68 -0.34 1.36 0 0 Z " fill="#6DAD63" transform="translate(283,229)"/>
<path d="M0 0 C0.66 0 1.32 0 2 0 C1.45276317 3.37462715 0.9451 5.08235 -1 8 C-1.93065133 5.39417629 -2.14917407 4.35801776 -1.0625 1.75 C-0.711875 1.1725 -0.36125 0.595 0 0 Z " fill="#1E465B" transform="translate(103,210)"/>
<path d="M0 0 C0.99 0.33 1.98 0.66 3 1 C1.625 3.5 1.625 3.5 0 6 C-0.66 6 -1.32 6 -2 6 C-2.33 5.01 -2.66 4.02 -3 3 C-2.34 3 -1.68 3 -1 3 C-0.67 2.01 -0.34 1.02 0 0 Z " fill="#214151" transform="translate(225,187)"/>
<path d="M0 0 C0.33 0 0.66 0 1 0 C1 1.98 1 3.96 1 6 C1.99 6.33 2.98 6.66 4 7 C2.68 7.33 1.36 7.66 0 8 C-0.79953138 4.71303767 -1.09658936 3.28976808 0 0 Z " fill="#115242" transform="translate(326,170)"/>
</svg>
